<svg width="130" height="66" viewBox="0 0 130 66" fill="none" xmlns="http://www.w3.org/2000/svg">
<g clip-path="url(#clip0_40_44)">
<path d="M125.532 34.8104C125.473 32.5145 124.696 30.2939 123.309 28.4552C123.526 28.2003 123.725 27.9299 123.903 27.6468C123.963 27.5491 124.014 27.4465 124.057 27.3403C124.78 25.9694 125.125 24.433 125.055 22.8871C124.986 21.3411 124.505 19.8411 123.661 18.5396C122.076 16.1816 118.885 13.3205 112.722 12.9704C112.627 12.9535 112.531 12.9463 112.435 12.949C110.323 12.8569 108.217 13.237 106.273 14.0613V9.08265C106.169 6.74469 105.149 4.53945 103.43 2.93647C101.712 1.33349 99.4304 0.459879 97.0721 0.50083C94.778 0.501113 92.5781 1.40522 90.956 3.01466C89.3338 4.62409 88.4223 6.80657 88.4221 9.08265V23.2801C85.0144 21.1482 80.9499 20.2972 76.9647 20.8819C72.9795 21.4666 69.3371 23.4481 66.6971 26.4673C65.1141 24.6557 63.1567 23.2036 60.9578 22.209C58.7589 21.2144 56.3701 20.7006 53.9535 20.7032C53.3874 20.6999 52.8217 20.7295 52.2591 20.7918C52.0512 18.7104 51.0884 16.7745 49.55 15.3445C48.0116 13.9146 46.0021 13.0876 43.8953 13.0173H43.3014C40.1151 13.0845 37.0145 14.0543 34.3652 15.8121V8.56196C34.3652 6.28579 33.4539 4.10293 31.8317 2.49344C30.2095 0.883946 28.0095 -0.0203857 25.7154 -0.0203857C23.4212 -0.0203857 21.2211 0.883946 19.5989 2.49344C17.9767 4.10293 17.0654 6.28579 17.0654 8.56196V11.8154C12.5969 11.9192 8.33838 13.7179 5.16558 16.8415C1.99277 19.965 0.146934 24.1759 0.0075439 28.6084C-0.111809 30.8723 0.240827 33.1366 1.04335 35.2592C1.84588 37.3817 3.081 39.3172 4.67164 40.9446C6.26228 42.572 8.17414 43.8562 10.2878 44.7172C12.4014 45.5782 14.6713 45.9972 16.9556 45.9483C21.0116 45.9223 24.9299 44.4853 28.0273 41.887C28.8034 43.1235 29.8828 44.1445 31.1647 44.8548C32.4465 45.5651 33.889 45.9412 35.3572 45.9483C36.5499 45.9498 37.7289 45.6952 38.8129 45.2014C40.0418 47.6806 41.8704 49.8191 44.1353 51.4262C46.4003 53.0334 49.0313 54.0592 51.7931 54.4118C54.555 54.7643 57.3619 54.4325 59.9631 53.4465C62.5644 52.4605 64.879 50.8511 66.7004 48.7613C68.5002 50.826 70.7817 52.4225 73.346 53.4116C75.9104 54.4006 78.6796 54.7523 81.4124 54.4357C84.1451 54.1192 86.7584 53.1442 89.0242 51.5956C91.29 50.0471 93.1394 47.9716 94.4114 45.5511C95.4338 45.8892 96.5033 46.0663 97.581 46.0754C97.9267 46.0771 98.2721 46.0549 98.6148 46.0092C100.183 45.8013 101.67 45.1915 102.929 44.2402C105.579 46.069 108.725 47.0591 111.953 47.0798C112.04 47.0975 112.129 47.1047 112.217 47.1012C112.422 47.1192 112.628 47.1267 112.834 47.1236C114.58 47.1507 116.314 46.8324 117.936 46.1875C119.557 45.5426 121.032 44.5839 122.276 43.3672C123.379 42.2367 124.236 40.8947 124.796 39.4232C125.356 37.9516 125.606 36.3816 125.532 34.8104Z" fill="#4D857F"/>
<path d="M41.4951 65.5199H40.8787L39.9318 62.3102L39.0077 65.5199H38.3913L37.1809 60.9301H37.934L38.7269 64.2059L39.6736 60.9301H40.2233L41.1476 64.2059L41.9622 60.9301H42.6881L41.4951 65.5199Z" fill="#4D857F"/>
<path d="M43.6523 64.0743C43.6419 64.1923 43.6555 64.3114 43.6925 64.424C43.7295 64.5366 43.789 64.6407 43.8675 64.73C43.9422 64.8174 44.0378 64.8851 44.1454 64.927C44.2529 64.9689 44.3692 64.9839 44.4839 64.9703C44.6334 64.9749 44.7823 64.9528 44.9239 64.9051C45.0514 64.832 45.1697 64.7437 45.2759 64.6424L45.6943 65.0354C45.6117 65.1127 45.5237 65.1838 45.4308 65.2486C45.3554 65.324 45.2653 65.3836 45.1661 65.4237C45.0778 65.4461 44.968 65.4889 44.8572 65.5113C44.7261 65.5303 44.5937 65.5378 44.4613 65.5337C44.2668 65.5385 44.073 65.5088 43.889 65.4461C43.7118 65.3947 43.552 65.2964 43.4264 65.1621C43.2822 65.0192 43.1695 64.8483 43.096 64.6596C43.0217 64.404 42.9856 64.1386 42.9886 63.8726C42.9636 63.4337 43.0961 63.0002 43.3629 62.6493C43.4865 62.5043 43.6423 62.3899 43.8178 62.3141C43.9934 62.2384 44.184 62.2038 44.3752 62.213C44.5788 62.2022 44.7822 62.2389 44.9691 62.3199C45.1453 62.3833 45.2987 62.497 45.4093 62.6472C45.531 62.7866 45.6208 62.9507 45.6727 63.1278C45.7424 63.3321 45.7788 63.5459 45.7804 63.7616V64.067L43.6523 64.0743ZM45.1049 63.3753L45.0381 63.1788C44.9891 63.0556 44.9049 62.949 44.796 62.8724C44.6726 62.7918 44.5258 62.7546 44.3786 62.766C44.2377 62.7543 44.0971 62.7917 43.9815 62.8724C43.8669 62.943 43.7813 63.0516 43.7395 63.1788C43.6982 63.2363 43.6753 63.3048 43.6739 63.3753C43.6533 63.4537 43.6457 63.5349 43.6513 63.6156H45.1261C45.1261 63.5067 45.1049 63.4415 45.1049 63.3753Z" fill="#4D857F"/>
<path d="M47.6579 65.5199C47.5204 65.5275 47.3833 65.4981 47.2618 65.4339C47.148 65.3999 47.0479 65.3311 46.9758 65.2374C46.8922 65.1603 46.8311 65.062 46.7993 64.9533C46.7722 64.8385 46.7574 64.721 46.7551 64.6031V60.9301H47.4157V64.5775C47.4073 64.6799 47.4389 64.7817 47.504 64.8616C47.5481 64.9278 47.6362 64.9502 47.7674 64.9502H48.0753V65.5168L47.6579 65.5199Z" fill="#4D857F"/>
<path d="M49.7934 65.5199C49.6559 65.5275 49.5188 65.4981 49.3973 65.4339C49.2892 65.3887 49.1919 65.3218 49.1113 65.2374C49.0347 65.1585 48.9814 65.0602 48.9573 64.9533C48.9125 64.842 48.8901 64.7229 48.8917 64.6031V60.9301H49.5738V64.5775C49.5693 64.6763 49.5921 64.7746 49.6395 64.8616C49.6836 64.9278 49.7932 64.9502 49.9255 64.9502H50.2118V65.5168L49.7934 65.5199Z" fill="#4D857F"/>
<path d="M53.5134 62.8062V65.5144H52.8528V62.8062H52.4785V62.3037H52.8528V61.8007C52.8568 61.6903 52.8716 61.5804 52.8969 61.4729C52.9427 61.3642 53.002 61.262 53.0734 61.168C53.1613 61.0924 53.2574 61.0264 53.3597 60.9715C53.4868 60.9252 53.6213 60.9031 53.7566 60.9063H54.174V61.452H53.888C53.8354 61.4493 53.7828 61.4571 53.7335 61.4755C53.6843 61.4939 53.6394 61.522 53.6017 61.5584C53.568 61.5973 53.5428 61.6428 53.5276 61.6918C53.5124 61.7408 53.5076 61.7925 53.5134 61.8435V62.3016H54.174V62.8041L53.5134 62.8062Z" fill="#4D857F"/>
<path d="M55.2511 64.0746C55.2406 64.3117 55.317 64.5448 55.4662 64.7303C55.5437 64.8143 55.6396 64.8794 55.7465 64.9211C55.8533 64.9627 55.9683 64.9798 56.0827 64.9706C56.2396 64.977 56.3963 64.9549 56.5452 64.9054C56.6691 64.827 56.7868 64.7391 56.8972 64.6427L57.3156 65.0357C57.2326 65.1131 57.1443 65.1841 57.0511 65.2489C56.9682 65.3149 56.8796 65.3735 56.7863 65.424C56.6788 65.4465 56.5882 65.4892 56.4559 65.5116C56.3321 65.5306 56.2068 65.5381 56.0816 65.534C55.887 65.5406 55.6929 65.5108 55.5093 65.4465C55.3236 65.4004 55.1554 65.3016 55.0252 65.1624C54.8806 65.0239 54.7745 64.8511 54.7173 64.6599C54.6233 64.4084 54.5786 64.1411 54.5852 63.8729C54.5564 63.4301 54.6978 62.993 54.9811 62.6496C55.1033 62.5029 55.2588 62.3872 55.4347 62.3113C55.6106 62.2355 55.8019 62.202 55.9934 62.2134C56.197 62.2025 56.4004 62.2391 56.5872 62.3202C56.7603 62.3894 56.9119 62.502 57.0272 62.6475C57.1411 62.7924 57.2305 62.9548 57.292 63.1281C57.3552 63.3334 57.385 63.5472 57.3802 63.7619V64.0673L55.2511 64.0746ZM56.7262 63.3757C56.7061 63.3065 56.6763 63.2403 56.6379 63.1792C56.5963 63.0519 56.5104 62.9432 56.3958 62.8727C56.3082 62.8159 56.2092 62.779 56.1058 62.7638C56.0023 62.7485 55.8968 62.7555 55.7964 62.7846C55.696 62.8137 55.6032 62.864 55.5242 62.9321C55.4453 63.0002 55.3823 63.0845 55.3393 63.1792L55.2726 63.3757C55.2743 63.4563 55.2667 63.537 55.25 63.6159H56.7422C56.7279 63.5367 56.7226 63.4561 56.7262 63.3757Z" fill="#4D857F"/>
<path d="M60.1378 65.5199V65.1712C60.0411 65.3028 59.9121 65.4075 59.7632 65.4761C59.6057 65.5204 59.4428 65.5424 59.2791 65.5413C59.1225 65.5424 58.9667 65.5204 58.8166 65.4761C58.6875 65.4262 58.5682 65.3542 58.4646 65.2629C58.3936 65.1718 58.3277 65.0769 58.2668 64.9789C58.2178 64.8665 58.1816 64.7489 58.1591 64.6286C58.1323 64.5065 58.1175 64.3825 58.115 64.2575V63.5101C58.1188 63.3782 58.1336 63.2466 58.1591 63.1171C58.1849 63.0048 58.221 62.8955 58.2668 62.7898C58.3278 62.6918 58.3937 62.5969 58.4646 62.5057C58.5738 62.4222 58.6919 62.3504 58.8166 62.292C59.1183 62.2045 59.4389 62.2045 59.7406 62.292C59.8873 62.3645 60.0213 62.4606 60.1367 62.5761V60.9301H60.7973V65.5199H60.1378ZM60.1378 63.8827C60.1378 63.729 60.1152 63.5986 60.1152 63.4673C60.1025 63.3451 60.0659 63.2264 60.0075 63.1181C59.9611 63.024 59.8932 62.9422 59.8094 62.8784C59.734 62.8295 59.6491 62.7968 59.5602 62.7825C59.4712 62.7681 59.3804 62.7723 59.2933 62.795C59.2061 62.8176 59.1247 62.8581 59.0543 62.9138C58.9838 62.9695 58.926 63.0389 58.8843 63.1181C58.8322 63.2276 58.8022 63.3464 58.7961 63.4673C58.7667 63.7434 58.7667 64.0216 58.7961 64.2976C58.8022 64.4186 58.8322 64.5374 58.8843 64.6468C58.9381 64.7411 59.0114 64.8231 59.0994 64.8871C59.2078 64.9447 59.3287 64.9747 59.4517 64.9747C59.5746 64.9747 59.6958 64.9447 59.8042 64.8871C59.8877 64.8231 59.9555 64.7408 60.0022 64.6468C60.0606 64.5385 60.097 64.4198 60.1096 64.2976C60.1161 64.1621 60.1378 64.0312 60.1378 63.8786V63.8827Z" fill="#4D857F"/>
<path d="M61.8333 65.5156V64.7291H62.6036V65.5156H61.8333Z" fill="#4D857F"/>
<path d="M69.2931 65.5199H68.6995L67.7539 62.3102L66.8073 65.5199H66.2121L65.0017 60.9301H65.755L66.5477 64.2059L67.4718 60.9301H68.0444L68.9684 64.2059L69.7601 60.9301H70.5134L69.2931 65.5199Z" fill="#4D857F"/>
<path d="M71.4513 64.0746C71.4409 64.3117 71.5175 64.5448 71.6667 64.7303C71.7442 64.8143 71.8398 64.8794 71.9467 64.9211C72.0535 64.9627 72.169 64.9798 72.2834 64.9706C72.4403 64.9768 72.5967 64.9547 72.7457 64.9054C72.8695 64.8268 72.9872 64.7389 73.0977 64.6427L73.5164 65.0357C73.4335 65.1128 73.3453 65.1838 73.2526 65.2489C73.1695 65.3145 73.0809 65.3732 72.9879 65.424C72.8803 65.4465 72.7887 65.4892 72.6575 65.5116C72.5336 65.5306 72.4087 65.5381 72.2834 65.534C72.0888 65.5405 71.8944 65.5108 71.7108 65.4465C71.5251 65.4004 71.3567 65.3016 71.2265 65.1624C71.0818 65.0239 70.9758 64.851 70.9181 64.6599C70.8243 64.4084 70.7793 64.1411 70.7857 63.8729C70.7567 63.4301 70.8978 62.9929 71.1813 62.6496C71.3035 62.5029 71.4593 62.3872 71.6352 62.3113C71.8111 62.2355 72.0026 62.202 72.1941 62.2134C72.3981 62.2024 72.6016 62.2391 72.7888 62.3202C72.962 62.3891 73.114 62.5017 73.229 62.6475C73.3427 62.7925 73.4322 62.9549 73.4938 63.1281C73.5568 63.3335 73.5866 63.5472 73.582 63.7619V64.0673L71.4513 64.0746ZM72.9264 63.3757C72.9063 63.3065 72.8766 63.2403 72.8382 63.1792C72.7965 63.0519 72.7112 62.9432 72.5965 62.8727C72.509 62.8159 72.41 62.779 72.3065 62.7638C72.2031 62.7485 72.0975 62.7555 71.9971 62.7846C71.8967 62.8137 71.8034 62.864 71.7245 62.9321C71.6456 63.0002 71.5825 63.0845 71.5396 63.1792L71.4728 63.3757C71.4745 63.4563 71.4669 63.537 71.4503 63.6159H72.9427C72.9279 63.5368 72.923 63.4561 72.9264 63.3757Z" fill="#4D857F"/>
<path d="M75.4795 65.5199C75.3348 65.5271 75.1911 65.4978 75.0613 65.4339C74.9535 65.3884 74.8559 65.3215 74.775 65.2374C74.7063 65.153 74.6537 65.0566 74.6201 64.9533C74.5934 64.8384 74.5786 64.721 74.5759 64.6031V60.9301H75.2363V64.5775C75.232 64.6764 75.255 64.7748 75.303 64.8616C75.3418 64.8953 75.3876 64.9203 75.4369 64.9356C75.4862 64.9509 75.538 64.956 75.5893 64.9502H75.8756V65.5168L75.4795 65.5199Z" fill="#4D857F"/>
<path d="M77.6139 65.5199C77.4765 65.5275 77.3399 65.4981 77.2184 65.4339C77.1045 65.4001 77.0041 65.3312 76.9321 65.2374C76.856 65.1544 76.7961 65.058 76.7556 64.9533C76.7289 64.8384 76.7141 64.721 76.7114 64.6031V60.9301H77.3718V64.5775C77.3636 64.6799 77.3952 64.7816 77.46 64.8616C77.5052 64.9278 77.5924 64.9502 77.7248 64.9502H78.0337V65.5168L77.6139 65.5199Z" fill="#4D857F"/>
<path d="M83.2539 63.8786V64.2497C83.2448 64.3755 83.2224 64.5001 83.1872 64.6213C83.1751 64.7439 83.1384 64.8631 83.0795 64.9716C83.0341 65.0789 82.9666 65.1752 82.8814 65.2551C82.7894 65.3507 82.6768 65.424 82.5515 65.4688C82.4011 65.5116 82.2452 65.5336 82.0887 65.534C81.9246 65.5366 81.7608 65.5146 81.6033 65.4688C81.4515 65.3953 81.317 65.2912 81.2077 65.1634V65.5126H80.5642V60.9301H81.2235V62.5677C81.3307 62.4426 81.4671 62.345 81.6206 62.2837C81.7703 62.2371 81.9267 62.2147 82.0834 62.2175C82.2401 62.2164 82.3957 62.2387 82.5457 62.2837C82.6666 62.3369 82.7782 62.4087 82.8762 62.4968C82.9612 62.5769 83.0287 62.6737 83.0742 62.7809C83.1298 62.8827 83.1664 62.9939 83.1819 63.1087C83.2153 63.2376 83.2376 63.3692 83.2486 63.5017L83.2539 63.8786ZM82.5946 63.8786C82.5989 63.7398 82.5914 63.6007 82.572 63.4632C82.5561 63.3439 82.5265 63.2266 82.4837 63.1139C82.4303 63.0195 82.3567 62.9374 82.2684 62.8737C82.1601 62.8158 82.0389 62.7856 81.9159 62.7856C81.7929 62.7856 81.6722 62.8158 81.5639 62.8737C81.481 62.9431 81.4083 63.0241 81.3485 63.1139C81.3058 63.2266 81.2762 63.3439 81.2603 63.4632C81.2301 63.7392 81.2301 64.0174 81.2603 64.2935C81.2762 64.4128 81.3058 64.53 81.3485 64.6427C81.4086 64.7323 81.4812 64.8132 81.5639 64.883C81.6723 64.9405 81.7929 64.9705 81.9159 64.9705C82.0388 64.9705 82.16 64.9405 82.2684 64.883C82.3564 64.8189 82.43 64.7369 82.4837 64.6427C82.5265 64.53 82.5561 64.4128 82.572 64.2935C82.5896 64.1558 82.595 64.0172 82.5888 63.8786H82.5946Z" fill="#4D857F"/>
<path d="M85.9567 63.0038C85.8684 62.9376 85.8026 62.897 85.7413 62.8511C85.6547 62.801 85.5549 62.778 85.455 62.7849C85.3684 62.7847 85.2829 62.8025 85.2033 62.8365C85.1238 62.8705 85.0521 62.9199 84.9927 62.9824C84.8723 63.1387 84.8099 63.3316 84.8162 63.5281V65.5155H84.1511V62.2397H84.7889V62.6103C84.8831 62.4815 85.0134 62.3826 85.1634 62.3262C85.3193 62.2452 85.4948 62.2081 85.6704 62.2194C85.8127 62.2163 85.9542 62.2387 86.0885 62.2856C86.2236 62.337 86.3446 62.4193 86.4415 62.5258L85.9567 63.0038Z" fill="#4D857F"/>
<path d="M87.4083 64.0747C87.3982 64.1926 87.4123 64.3118 87.4492 64.4244C87.4862 64.537 87.5455 64.6409 87.6237 64.7304C87.6999 64.816 87.7954 64.8825 87.9026 64.9242C88.0098 64.966 88.1258 64.982 88.2404 64.9706C88.3902 64.9754 88.5392 64.9533 88.6811 64.9055C88.8126 64.8379 88.9319 64.749 89.0341 64.6428L89.4518 65.0358C89.3636 65.1233 89.2763 65.1881 89.2096 65.249C89.1226 65.3199 89.0262 65.3788 88.9233 65.4241C88.8351 65.4465 88.7252 65.4892 88.6155 65.5117C88.4841 65.5313 88.3516 65.5388 88.2188 65.5341C88.0247 65.5388 87.831 65.5092 87.6473 65.4465C87.4701 65.3951 87.31 65.2968 87.1845 65.1624C87.0398 65.0199 86.9276 64.8489 86.8546 64.66C86.7802 64.4044 86.7438 64.139 86.7469 63.873C86.7219 63.4341 86.8547 63.0006 87.1214 62.6497C87.248 62.5025 87.407 62.3866 87.5864 62.3109C87.7658 62.2351 87.9607 62.2019 88.1553 62.2134C88.3523 62.2024 88.5488 62.2392 88.7284 62.3203C88.9045 62.3839 89.0578 62.4976 89.1686 62.6476C89.2967 62.786 89.3941 62.9499 89.4539 63.1281C89.5067 63.3356 89.5363 63.548 89.5421 63.7619V64.0674L87.4083 64.0747ZM88.8618 63.3757C88.8599 63.3053 88.837 63.2369 88.7962 63.1792C88.7542 63.0518 88.668 62.9431 88.553 62.8727C88.4377 62.7922 88.2979 62.7548 88.1574 62.7664C88.0099 62.752 87.8619 62.7894 87.7397 62.8727C87.6248 62.9429 87.5388 63.0517 87.4976 63.1792C87.4559 63.2365 87.4327 63.3051 87.4309 63.3757C87.41 63.454 87.4024 63.5352 87.4083 63.616H88.8844C88.8901 63.5352 88.8824 63.454 88.8618 63.3757Z" fill="#4D857F"/>
<path d="M92.2922 65.5199V65.1712C92.183 65.2991 92.0485 65.4027 91.8966 65.4761C91.7398 65.5234 91.5761 65.5455 91.4122 65.5413C91.263 65.5425 91.1144 65.5205 90.972 65.4761C90.8376 65.4368 90.7163 65.3635 90.6195 65.2629C90.5345 65.1829 90.467 65.0861 90.4215 64.9789C90.3726 64.8665 90.3364 64.7489 90.3138 64.6286C90.2869 64.5065 90.2721 64.3825 90.2697 64.2575C90.2509 64.1346 90.2433 64.0101 90.2471 63.8859C90.2427 63.7616 90.2502 63.6371 90.2697 63.5142C90.2734 63.3823 90.2882 63.2513 90.3138 63.1218C90.3397 63.0096 90.3758 62.8997 90.4215 62.7939C90.4673 62.6869 90.5347 62.5901 90.6195 62.5099C90.7222 62.4169 90.8417 62.3442 90.972 62.2962C91.1142 62.2512 91.263 62.2288 91.4122 62.23C91.576 62.2291 91.7392 62.2514 91.8966 62.2962C92.04 62.3638 92.1672 62.4607 92.2706 62.5802V60.9301H92.9304V65.5199H92.2922ZM92.2696 63.8827C92.2736 63.7439 92.2661 63.6049 92.247 63.4673C92.2409 63.3464 92.2109 63.2276 92.1587 63.1181C92.1121 63.0241 92.0443 62.9424 91.9607 62.8784C91.843 62.8234 91.7156 62.7932 91.5856 62.7898C91.4632 62.793 91.3428 62.8233 91.2336 62.8784C91.1494 62.9418 91.0815 63.0237 91.0356 63.1181C90.977 63.2263 90.9403 63.3451 90.9279 63.4673C90.9279 63.5986 90.9053 63.7301 90.9053 63.8827C90.9053 64.0354 90.9279 64.1663 90.9279 64.2976C90.9403 64.4199 90.977 64.5386 91.0356 64.6468C91.0819 64.7411 91.1497 64.8234 91.2336 64.8871C91.3429 64.9418 91.4632 64.9717 91.5856 64.9747C91.7155 64.9716 91.843 64.9418 91.9607 64.8871C92.044 64.8228 92.1118 64.7406 92.1587 64.6468C92.2109 64.5374 92.2409 64.4186 92.247 64.2976C92.2678 64.1588 92.2767 64.0189 92.2738 63.8786L92.2696 63.8827Z" fill="#4D857F"/>
<path d="M93.9683 65.5156V64.7291H94.7599V65.5156H93.9683Z" fill="#4D857F"/>
<path d="M129.999 15.8333C130.001 16.1498 129.933 16.4627 129.8 16.7501C129.687 17.0323 129.515 17.2873 129.295 17.4976C129.083 17.719 128.826 17.8939 128.541 18.0104C128.257 18.127 127.951 18.1825 127.643 18.1741C127.334 18.1729 127.028 18.114 126.742 17.9995C126.463 17.8766 126.208 17.7066 125.988 17.4976C125.775 17.2812 125.603 17.0278 125.482 16.7501C125.356 16.4611 125.296 16.1481 125.306 15.8333C125.298 15.5257 125.358 15.2202 125.482 14.9379C125.604 14.6603 125.775 14.4069 125.988 14.1905C126.202 13.9743 126.459 13.8039 126.742 13.689C127.028 13.5743 127.334 13.5148 127.643 13.5139C127.959 13.515 128.273 13.5744 128.567 13.689C128.842 13.8049 129.089 13.9754 129.295 14.1905C129.731 14.6279 129.982 15.214 129.998 15.8292L129.999 15.8333ZM129.515 15.8333C129.516 15.5784 129.472 15.3257 129.383 15.0864C129.277 14.8685 129.135 14.6692 128.964 14.4969C128.799 14.3175 128.596 14.1756 128.37 14.0815C127.901 13.907 127.386 13.907 126.917 14.0815C126.687 14.1811 126.478 14.322 126.3 14.4969C126.143 14.6758 126.01 14.8741 125.903 15.0864C125.815 15.3258 125.771 15.5785 125.772 15.8333C125.77 16.0938 125.814 16.3525 125.903 16.5974C126.01 16.8099 126.143 17.0082 126.3 17.1869C126.473 17.3626 126.684 17.4974 126.917 17.581C127.146 17.6821 127.393 17.7342 127.644 17.7342C127.894 17.7342 128.141 17.6821 128.37 17.581C128.599 17.5026 128.804 17.3668 128.964 17.1869C129.135 17.0148 129.277 16.8154 129.383 16.5974C129.473 16.3527 129.518 16.094 129.515 15.8333ZM128.128 17.1004L127.621 16.096H127.29V17.1004H126.829V14.5855H127.774C127.888 14.582 128.001 14.6047 128.105 14.6517C128.206 14.6761 128.298 14.7292 128.369 14.8044C128.445 14.8795 128.505 14.9689 128.545 15.0671C128.572 15.1596 128.587 15.2546 128.59 15.3507C128.596 15.5069 128.55 15.661 128.457 15.7875C128.36 15.8941 128.24 15.9765 128.105 16.0277L128.654 17.0952L128.128 17.1004ZM128.128 15.3533C128.134 15.3041 128.127 15.2538 128.108 15.2079C128.09 15.162 128.059 15.1219 128.021 15.0906C127.985 15.0517 127.94 15.0216 127.89 15.003C127.841 14.9845 127.787 14.978 127.734 14.9837H127.293V15.7312H127.734C127.787 15.737 127.841 15.7299 127.89 15.7114C127.94 15.6928 127.985 15.6632 128.021 15.6243C128.061 15.5924 128.092 15.5504 128.111 15.5029C128.13 15.4553 128.136 15.404 128.128 15.3533Z" fill="#4D857F"/>
<path fill-rule="evenodd" clip-rule="evenodd" d="M96.8071 41.4277C95.9026 41.4265 95.0358 41.0695 94.3964 40.4347C93.757 39.7999 93.3973 38.9393 93.3967 38.0418V9.71791C93.3967 8.82018 93.7561 7.95927 94.3959 7.32448C95.0357 6.68969 95.9034 6.33313 96.8082 6.33313C97.713 6.33313 98.5807 6.68969 99.2205 7.32448C99.8603 7.95927 100.22 8.82018 100.22 9.71791V38.0418C100.219 38.9396 99.8592 39.8004 99.2194 40.4353C98.5796 41.0701 97.712 41.4268 96.8071 41.4277Z" fill="#4D857F"/>
<path fill-rule="evenodd" clip-rule="evenodd" d="M53.1391 26.4246C50.7976 26.4064 48.5034 27.0787 46.5476 28.3562C44.5918 29.6337 43.0623 31.4584 42.1535 33.5996C41.2447 35.7408 40.9975 38.1019 41.443 40.3827C41.8886 42.6636 43.0069 44.7613 44.6562 46.4106C46.3054 48.0598 48.4111 49.1863 50.7063 49.6463C53.0016 50.1063 55.3828 49.8791 57.5479 48.9943C59.713 48.1094 61.5644 46.6064 62.8673 44.676C64.1702 42.7455 64.8658 40.4747 64.8659 38.1514C64.8724 36.6173 64.5743 35.097 63.9884 33.6773C63.4025 32.2576 62.5403 30.9667 61.4513 29.8776C60.3623 28.7886 59.0677 27.9229 57.6414 27.3304C56.2151 26.738 54.6853 26.4301 53.1391 26.4246ZM53.1391 43.0435C52.1621 43.0522 51.2043 42.7726 50.3877 42.2403C49.5711 41.7081 48.9325 40.9475 48.5525 40.0544C48.1725 39.1612 48.0683 38.176 48.2536 37.2242C48.4388 36.2723 48.9051 35.3968 49.5929 34.7082C50.2807 34.0197 51.1589 33.5491 52.1166 33.3567C53.0742 33.1644 54.0679 33.2588 54.9714 33.6278C55.875 33.9967 56.6477 34.6237 57.1915 35.4291C57.7352 36.2345 58.0256 37.182 58.0257 38.1514C58.0303 38.7915 57.9074 39.4261 57.664 40.0189C57.4206 40.6117 57.0617 41.1509 56.6076 41.6055C56.1534 42.0601 55.6132 42.4215 55.0179 42.6683C54.4227 42.915 53.7842 43.0424 53.1391 43.0435Z" fill="#4D857F"/>
<path fill-rule="evenodd" clip-rule="evenodd" d="M78.6272 26.4247C76.2847 26.4029 73.9886 27.072 72.0302 28.3475C70.0718 29.6229 68.5396 31.4472 67.628 33.5883C66.7163 35.7294 66.4663 38.0907 66.9099 40.373C67.3535 42.6552 68.4709 44.7554 70.1196 46.4066C71.7683 48.0577 73.8743 49.1856 76.1703 49.647C78.4663 50.1084 80.8484 49.8826 83.0147 48.9981C85.1811 48.1135 87.0342 46.6104 88.3379 44.6793C89.6416 42.7481 90.3374 40.4759 90.3372 38.1516C90.3501 35.0563 89.1241 32.0829 86.9284 29.884C84.7328 27.6851 81.7469 26.4408 78.6272 26.4247ZM78.6272 43.0437C77.6502 43.0524 76.6927 42.7727 75.8761 42.2405C75.0595 41.7082 74.4206 40.9476 74.0406 40.0545C73.6607 39.1614 73.557 38.1762 73.7422 37.2243C73.9275 36.2725 74.3935 35.397 75.0813 34.7084C75.7691 34.0198 76.6473 33.5492 77.6049 33.3569C78.5626 33.1645 79.5566 33.259 80.4601 33.6279C81.3636 33.9969 82.1363 34.6238 82.6801 35.4292C83.2239 36.2347 83.5138 37.1821 83.5138 38.1516C83.5179 38.7915 83.3949 39.426 83.1513 40.0185C82.9078 40.6111 82.5489 41.1501 82.0949 41.6046C81.6409 42.0591 81.1008 42.4204 80.5058 42.6674C79.9108 42.9144 79.2722 43.042 78.6272 43.0437Z" fill="#4D857F"/>
<path fill-rule="evenodd" clip-rule="evenodd" d="M28.3113 9.39125C28.3113 8.49352 27.9519 7.63261 27.3121 6.99782C26.6723 6.36303 25.8046 6.00647 24.8998 6.00647C23.995 6.00647 23.1272 6.36303 22.4874 6.99782C21.8476 7.63261 21.4882 8.49352 21.4882 9.39125V18.8915C19.1685 17.8156 16.5597 17.5154 14.0534 18.0356C11.5471 18.5559 9.27832 19.8687 7.58785 21.7769C5.89737 23.6851 4.87639 26.086 4.67794 28.6189C4.47949 31.1518 5.11434 33.6802 6.48729 35.8247C7.86025 37.9692 9.8972 39.6143 12.2924 40.5125C14.6876 41.4108 17.3118 41.5142 19.7712 40.807C22.2306 40.0998 24.3925 38.6202 25.9323 36.5904C27.4722 34.5605 28.3069 32.0898 28.3113 29.5493V9.39125ZM16.6016 34.4393C15.6246 34.448 14.667 34.1684 13.8504 33.6361C13.0337 33.1039 12.3949 32.3428 12.0149 31.4496C11.6349 30.5565 11.531 29.5713 11.7162 28.6194C11.9015 27.6676 12.3675 26.7921 13.0553 26.1035C13.7431 25.415 14.6216 24.9449 15.5792 24.7525C16.5369 24.5602 17.5306 24.6541 18.4341 25.023C19.3376 25.392 20.1102 26.0189 20.654 26.8244C21.1978 27.6298 21.4882 28.5778 21.4882 29.5472C21.4928 30.8385 20.9808 32.0784 20.0647 32.9956C19.1486 33.9127 17.9031 34.4323 16.6016 34.4393Z" fill="#4D857F"/>
<path fill-rule="evenodd" clip-rule="evenodd" d="M42.8376 18.738H42.5954C39.5176 18.8154 36.5929 20.0868 34.4489 22.2792C32.305 24.4716 31.1128 27.4102 31.1278 30.4649V37.8901C31.1278 38.7878 31.4872 39.6488 32.127 40.2835C32.7668 40.9183 33.6345 41.2749 34.5393 41.2749C35.4441 41.2749 36.312 40.9183 36.9518 40.2835C37.5916 39.6488 37.951 38.7878 37.951 37.8901V30.4649C37.9501 29.1747 38.4632 27.9365 39.3786 27.0202C40.2939 26.1038 41.5373 25.5834 42.8376 25.5727C43.7507 25.5727 44.6263 25.2131 45.2719 24.5725C45.9176 23.9319 46.2803 23.0632 46.2803 22.1572C46.2803 21.2513 45.9176 20.3825 45.2719 19.7419C44.6263 19.1013 43.7507 18.7412 42.8376 18.7412V18.738Z" fill="#4D857F"/>
<path fill-rule="evenodd" clip-rule="evenodd" d="M116.838 30.5748C116.169 30.0762 115.448 29.6513 114.686 29.3077C114.554 29.2415 114.444 29.2009 114.334 29.1539L114.026 29.0012C112.662 28.302 110.24 27.1674 110.57 25.4637C110.641 25.0795 110.844 24.7319 111.145 24.4807C111.447 24.2295 111.827 24.0904 112.22 24.0877C112.324 24.0915 112.428 24.1062 112.529 24.1315C113.488 24.6012 114.414 25.1341 115.302 25.7264C115.805 26.044 116.38 26.2316 116.974 26.2726C117.29 26.3127 117.611 26.2596 117.897 26.1199C118.183 25.9802 118.42 25.7602 118.581 25.4872C118.86 24.9388 118.997 24.3298 118.978 23.7156C118.959 23.1014 118.786 22.5016 118.473 21.971C117.461 20.4862 115.461 18.8927 111.452 18.6952L111.387 18.6738C107.424 18.5212 103.396 20.8353 103.533 25.6399C103.584 26.6017 103.844 27.5413 104.297 28.3935C104.749 29.2456 105.382 29.99 106.153 30.5758H106.13C106.8 31.0688 107.524 31.4863 108.287 31.8205C108.441 31.8866 108.552 31.9518 108.639 31.9956L108.969 32.1494C110.312 32.8261 112.755 33.9832 112.425 35.6868C112.351 36.0695 112.147 36.4151 111.846 36.6657C111.546 36.9163 111.167 37.0568 110.775 37.0629C110.671 37.0603 110.567 37.0456 110.467 37.0191C109.505 36.554 108.578 36.0209 107.693 35.4242C107.182 35.1066 106.6 34.9187 105.999 34.8774C105.654 34.8496 105.309 34.9244 105.007 35.0916C104.705 35.2589 104.46 35.5114 104.303 35.8172C104.039 36.3472 103.92 36.9366 103.957 37.5267C103.995 38.1169 104.189 38.6869 104.518 39.1795C105.509 40.6643 107.511 42.2589 111.518 42.4554L111.606 42.4767C115.569 42.6304 119.597 40.3153 119.442 35.5107C119.399 34.5489 119.143 33.608 118.693 32.755C118.243 31.902 117.61 31.1579 116.838 30.5748Z" fill="#4D857F"/>
<path fill-rule="evenodd" clip-rule="evenodd" d="M97.6227 40.8822C97.1742 40.8836 96.7298 40.797 96.3151 40.6273C95.9005 40.4576 95.5238 40.2081 95.2067 39.8934C94.8896 39.5787 94.6384 39.2051 94.4676 38.7937C94.2967 38.3822 94.2096 37.9414 94.2112 37.4964V9.1714C94.2112 8.27367 94.5706 7.41276 95.2104 6.77797C95.8502 6.14319 96.7179 5.78662 97.6227 5.78662C98.5275 5.78662 99.3952 6.14319 100.035 6.77797C100.675 7.41276 101.034 8.27367 101.034 9.1714V37.4964C101.036 37.9414 100.949 38.3822 100.778 38.7937C100.607 39.2051 100.356 39.5787 100.039 39.8934C99.7215 40.2081 99.3448 40.4576 98.9302 40.6273C98.5156 40.797 98.0712 40.8836 97.6227 40.8822Z" fill="#FEFEFE"/>
<path fill-rule="evenodd" clip-rule="evenodd" d="M53.9533 25.8791C51.6085 25.858 49.3101 26.5286 47.35 27.8056C45.3899 29.0825 43.8563 30.9084 42.9438 33.0516C42.0314 35.1948 41.7814 37.5586 42.2252 39.843C42.669 42.1275 43.7868 44.2298 45.4368 45.8829C47.0867 47.536 49.1944 48.6654 51.4924 49.128C53.7905 49.5906 56.1754 49.3655 58.3442 48.4812C60.5131 47.5968 62.3683 46.093 63.6745 44.1608C64.9806 42.2286 65.6786 39.9549 65.6801 37.6284C65.6889 36.0926 65.3924 34.5705 64.8076 33.1485C64.2228 31.7266 63.3613 30.4329 62.2721 29.3416C61.1829 28.2503 59.8875 27.3828 58.4601 26.7887C57.0327 26.1946 55.5012 25.8854 53.9533 25.8791ZM53.9533 42.5195C52.9763 42.5282 52.0186 42.2486 51.2019 41.7163C50.3853 41.184 49.7467 40.4234 49.3667 39.5303C48.9867 38.6372 48.8826 37.652 49.0678 36.7001C49.253 35.7483 49.7193 34.8728 50.4071 34.1842C51.0949 33.4956 51.9731 33.025 52.9308 32.8327C53.8884 32.6404 54.8821 32.7348 55.7857 33.1037C56.6892 33.4727 57.4619 34.0996 58.0057 34.905C58.5494 35.7105 58.8399 36.6579 58.8399 37.6274C58.8408 38.9175 58.3277 40.1557 57.4123 41.0721C56.497 41.9885 55.2536 42.5088 53.9533 42.5195Z" fill="#FEFEFE"/>
<path fill-rule="evenodd" clip-rule="evenodd" d="M79.4365 25.8793C77.091 25.8548 74.7913 26.5225 72.8289 27.7974C70.8666 29.0723 69.3303 30.8969 68.4151 33.0398C67.5 35.1826 67.2473 37.5467 67.6891 39.8323C68.131 42.1179 69.2475 44.222 70.8968 45.8768C72.546 47.5317 74.6537 48.6626 76.9522 49.1266C79.2507 49.5906 81.6362 49.3667 83.8061 48.4829C85.976 47.5991 87.8323 46.0956 89.1392 44.1631C90.4461 42.2305 91.1448 39.9558 91.1465 37.6286C91.1591 34.5313 89.9336 31.5556 87.7387 29.3532C85.5438 27.1508 82.5581 25.9016 79.4365 25.8793ZM79.4365 42.5197C78.4594 42.5283 77.502 42.2487 76.6853 41.7165C75.8687 41.1842 75.2298 40.4236 74.8498 39.5305C74.4699 38.6374 74.3657 37.6521 74.5509 36.7003C74.7362 35.7484 75.2027 34.8729 75.8905 34.1844C76.5783 33.4958 77.4565 33.0252 78.4142 32.8329C79.3718 32.6405 80.3652 32.7349 81.2688 33.1039C82.1723 33.4728 82.945 34.0998 83.4888 34.9052C84.0326 35.7106 84.323 36.6581 84.323 37.6275C84.3276 38.9188 83.8155 40.1592 82.8994 41.0764C81.9833 41.9936 80.7379 42.5126 79.4365 42.5197Z" fill="#FEFEFE"/>
<path fill-rule="evenodd" clip-rule="evenodd" d="M29.1256 8.8661C29.1256 7.96837 28.7662 7.10747 28.1264 6.47268C27.4866 5.83789 26.6189 5.48132 25.7141 5.48132C24.8093 5.48132 23.9415 5.83789 23.3017 6.47268C22.6619 7.10747 22.3025 7.96837 22.3025 8.8661V18.3429C19.9803 17.2633 17.3677 16.9603 14.8571 17.4792C12.3464 17.9981 10.0732 19.3107 8.37851 21.2205C6.68386 23.1302 5.65922 25.5342 5.45849 28.0708C5.25776 30.6075 5.89172 33.1404 7.26521 35.2892C8.63871 37.4379 10.6777 39.0866 13.076 39.9879C15.4742 40.8892 18.1023 40.9944 20.5659 40.2876C23.0295 39.5808 25.1956 38.0999 26.739 36.0679C28.2824 34.0358 29.1198 31.5618 29.1256 29.0174V8.86089V8.8661ZM17.4159 33.9152C16.4389 33.9239 15.4813 33.6443 14.6647 33.112C13.848 32.5798 13.2092 31.8187 12.8292 30.9255C12.4492 30.0324 12.3453 29.0472 12.5305 28.0953C12.7158 27.1435 13.1818 26.268 13.8696 25.5794C14.5574 24.8909 15.4359 24.4208 16.3935 24.2284C17.3512 24.0361 18.3449 24.13 19.2484 24.4989C20.1519 24.8679 20.9245 25.4948 21.4683 26.3003C22.0121 27.1057 22.3025 28.0537 22.3025 29.0231C22.3074 30.3146 21.7956 31.5551 20.8794 32.4725C19.9632 33.3899 18.7176 33.9082 17.4159 33.9152Z" fill="#FEFEFE"/>
<path fill-rule="evenodd" clip-rule="evenodd" d="M43.653 18.1924C43.653 18.1924 43.4549 18.2149 43.4108 18.2149C40.3331 18.2919 37.4086 19.5627 35.2646 21.755C33.1207 23.9472 31.9282 26.8861 31.9433 29.9407V37.3669C31.9433 38.2647 32.3026 39.1256 32.9424 39.7604C33.5822 40.3952 34.4499 40.7517 35.3547 40.7517C36.2595 40.7517 37.1275 40.3952 37.7673 39.7604C38.4071 39.1256 38.7664 38.2647 38.7664 37.3669V29.9407C38.7616 28.6493 39.2733 27.409 40.1895 26.4918C41.1057 25.5745 42.3515 25.0553 43.653 25.0485C44.5695 25.0485 45.4485 24.6877 46.0966 24.0447C46.7446 23.4017 47.1086 22.5293 47.1086 21.62C47.1086 20.7106 46.7446 19.8388 46.0966 19.1958C45.4485 18.5528 44.5695 18.1924 43.653 18.1924Z" fill="#FEFEFE"/>
<path fill-rule="evenodd" clip-rule="evenodd" d="M117.673 30.0282H117.695C117.026 29.5352 116.305 29.1174 115.543 28.7825L115.192 28.6074L114.861 28.4546C113.519 27.7555 111.076 26.6197 111.428 24.9171C111.495 24.5314 111.698 24.1818 112 23.93C112.302 23.6781 112.684 23.5402 113.078 23.5411C113.175 23.5453 113.271 23.56 113.365 23.5849C114.334 24.0502 115.269 24.5833 116.162 25.1798C116.664 25.5006 117.24 25.6881 117.835 25.725C118.151 25.7628 118.471 25.7087 118.756 25.5692C119.042 25.4297 119.28 25.211 119.442 24.9396C119.715 24.3886 119.846 23.7789 119.823 23.1653C119.8 22.5518 119.624 21.9537 119.31 21.4245C118.32 19.9397 116.316 18.3461 112.31 18.1486L112.222 18.1262C108.281 17.9736 104.255 20.2877 104.387 25.0923C104.429 26.0536 104.683 26.9939 105.132 27.8469C105.581 28.6999 106.213 29.4446 106.984 30.0282C107.652 30.5211 108.374 30.9386 109.135 31.2729L109.487 31.448L109.796 31.6017C111.16 32.2999 113.582 33.4356 113.252 35.1382C113.185 35.5241 112.982 35.874 112.68 36.1259C112.377 36.3778 111.995 36.5154 111.6 36.5142C111.496 36.509 111.394 36.494 111.293 36.4694C110.334 35.9998 109.407 35.4672 108.519 34.8755C108.021 34.5479 107.443 34.3589 106.846 34.3287C106.497 34.3151 106.151 34.393 105.842 34.5539C105.533 34.7148 105.272 34.9536 105.085 35.2461C104.814 35.782 104.697 36.3812 104.748 36.9786C104.798 37.576 105.014 38.1483 105.371 38.6319C106.361 40.1167 108.365 41.7103 112.371 41.9067L112.438 41.9291C116.4 42.0818 120.427 39.7677 120.291 34.9631C120.24 34.0017 119.98 33.0625 119.528 32.2105C119.077 31.3586 118.443 30.6141 117.673 30.0282Z" fill="#FEFEFE"/>
</g>
<defs>
<clipPath id="clip0_40_44">
<rect width="130" height="65.5372" fill="white"/>
</clipPath>
</defs>
</svg>
