<svg width="130" height="30" viewBox="0 0 130 30" fill="none" xmlns="http://www.w3.org/2000/svg">
<g clip-path="url(#clip0_40_84)">
<path fill-rule="evenodd" clip-rule="evenodd" d="M129.995 24.4067C129.894 23.9033 129.687 22.9619 129.567 22.393C129.554 22.3401 129.53 22.2904 129.498 22.2468C129.465 22.2033 129.424 22.1667 129.377 22.1394C129.33 22.1122 129.278 22.0947 129.224 22.0881C129.17 22.0815 129.115 22.0858 129.063 22.101C128.696 22.2381 128.309 22.3113 127.919 22.3174C127.057 22.3174 126.407 21.814 126.603 20.8071C126.84 19.6492 129.899 7.79323 129.899 7.79323C129.914 7.74829 129.918 7.70054 129.911 7.65371C129.905 7.60688 129.887 7.56223 129.86 7.52324C129.834 7.48426 129.798 7.45199 129.757 7.42896C129.715 7.40593 129.669 7.39276 129.622 7.39048H123.746C123.68 7.39277 123.618 7.41607 123.567 7.4569C123.516 7.49773 123.48 7.5539 123.463 7.61703L123.181 8.68935C123.168 8.74074 123.14 8.78743 123.102 8.82439C123.064 8.86135 123.016 8.88718 122.964 8.89909C122.912 8.91101 122.858 8.90856 122.808 8.892C122.757 8.87544 122.712 8.84541 122.677 8.80514C122.304 8.39113 121.873 8.03333 121.397 7.74289C121.148 7.58584 120.885 7.45267 120.611 7.34517C119.187 6.83337 117.647 6.73733 116.171 7.06828C111.66 7.94426 108.904 11.6697 108.253 12.6464C107.85 13.3059 106.323 14.7659 105.482 14.6903C105.275 14.6761 105.074 14.6122 104.897 14.5041C104.267 14.0006 104.474 13.0743 104.711 12.3191C104.993 11.3123 107.064 8.35708 107.634 7.53144C107.649 7.51161 107.659 7.4877 107.661 7.4626C107.663 7.43749 107.658 7.41226 107.647 7.38993C107.635 7.3676 107.617 7.34912 107.595 7.33671C107.573 7.32431 107.548 7.3185 107.523 7.32C106.399 7.32 104.645 7.32 103.844 7.32C103.565 7.31718 103.288 7.37381 103.032 7.48614C101.183 8.331 99.4518 9.41238 97.8817 10.7031L96.7024 11.6546C96.6931 11.6614 96.6818 11.665 96.6703 11.6651C96.6587 11.6652 96.6474 11.6616 96.638 11.655C96.6286 11.6483 96.6214 11.6389 96.6176 11.628C96.6138 11.6171 96.6135 11.6053 96.6167 11.5942C96.8284 10.9649 97.5491 8.78501 97.8968 7.45089C97.9017 7.43475 97.9026 7.41769 97.8995 7.40113C97.8964 7.38457 97.8893 7.36899 97.879 7.35569C97.8686 7.34239 97.8552 7.33175 97.8399 7.32467C97.8246 7.31758 97.8079 7.31426 97.791 7.31497H93.351C92.6549 7.31578 91.9782 7.54402 91.424 7.96487C90.8699 8.38571 90.4688 8.97607 90.2818 9.64589C89.9996 10.7182 89.7778 11.5892 89.5611 12.2336C89.4256 12.6458 89.257 13.0465 89.0571 13.4317C88.5801 14.3819 87.9308 15.2354 87.142 15.9489C85.8418 17.0817 82.7373 19.5385 82.3241 19.8405C81.5717 20.4349 80.7652 20.9574 79.9151 21.4012C78.6047 22.0003 76.6493 22.1161 75.5708 21.6378C75.2391 21.5362 74.937 21.3558 74.6904 21.112C74.4438 20.8683 74.2599 20.5685 74.1546 20.2382C74.1442 20.2108 74.1393 20.1816 74.1402 20.1523C74.1411 20.1229 74.1479 20.0941 74.1601 20.0674C74.1723 20.0407 74.1897 20.0167 74.2112 19.9967C74.2328 19.9768 74.2581 19.9614 74.2857 19.9513C76.1525 19.2837 77.9654 18.4741 79.7084 17.5297C82.2585 15.9792 84.2442 14.6148 84.6121 11.9667C85.0203 8.84542 82.5307 7.11862 79.3859 7.08338C75.7522 7.03807 72.1488 9.13741 69.7499 12.4098C68.1959 14.6097 67.162 17.1332 66.7261 19.7902C66.7162 19.8567 66.6892 19.9196 66.6477 19.9725C66.6061 20.0255 66.5515 20.0668 66.4892 20.0922C65.9147 20.3188 63.2033 21.0991 62.8203 21.1495C62.78 21.1495 62.7548 21.1495 62.7699 21.1142L62.9815 20.7971C63.9225 19.4585 64.3336 17.8192 64.1357 16.1956C63.9391 14.4235 62.8656 13.0491 62.6237 11.277C62.6237 11.1663 62.6237 10.9901 62.6237 10.8793C62.6892 9.68113 63.4452 8.80011 64.4632 7.85868C64.5047 7.81934 64.5338 7.7687 64.5467 7.71304C64.5597 7.65738 64.556 7.59914 64.5362 7.54554C64.5163 7.49194 64.4812 7.44534 64.435 7.41151C64.3889 7.37769 64.3339 7.35812 64.2768 7.35524H57.7251C54.923 8.16578 52.3225 13.5979 45.9422 13.7741C45.9184 13.7755 45.8946 13.7719 45.8723 13.7637C45.85 13.7554 45.8297 13.7425 45.8126 13.7259C45.7955 13.7094 45.7821 13.6894 45.7732 13.6674C45.7643 13.6453 45.76 13.6217 45.7608 13.5979C45.6933 12.5334 45.54 11.4761 45.3022 10.4363C44.7226 8.09529 43.0444 6.45408 40.212 7.06828C39.5415 7.1937 38.9046 7.45778 38.3423 7.84358C38.3423 7.84358 31.5134 8.92094 25.622 10.099C26.4838 7.88385 28.5249 2.29568 29.2607 0.57895C29.2942 0.519071 29.3119 0.451615 29.3121 0.382986C29.3122 0.314356 29.2948 0.246829 29.2615 0.186812C29.2282 0.126795 29.18 0.0762793 29.1217 0.0400593C29.0633 0.00383928 28.9967 -0.0168822 28.9281 -0.0201416H14.9277C14.2523 -0.0201416 13.703 0.0402705 13.4157 0.37254L9.61074 4.41012C9.59661 4.4245 9.58712 4.44278 9.5835 4.4626C9.57988 4.48243 9.5823 4.50288 9.59044 4.52131C9.59858 4.53975 9.61207 4.55532 9.62917 4.56601C9.64627 4.5767 9.66618 4.58203 9.68634 4.58129C11.1983 4.58129 18.3194 4.58129 19.9674 4.58129C20.0247 4.58551 20.08 4.60363 20.1287 4.63406C20.1773 4.6645 20.2178 4.70633 20.2466 4.75593C20.2754 4.80554 20.2916 4.86141 20.2939 4.91871C20.2962 4.97601 20.2845 5.03299 20.2597 5.08473C19.6449 6.55981 18.2085 10.25 17.8154 11.277C17.808 11.2937 17.7957 11.3077 17.7802 11.3173C16.0818 11.6596 14.4086 12.0523 12.811 12.5105C8.21474 13.7741 1.34054 16.4725 0.211637 21.4616C-1.52707 29.0686 8.36089 30.5084 13.708 27.7194C19.0552 24.9303 23.3642 16.5531 23.8984 14.786C23.3239 14.5393 21.6255 14.051 18.1934 14.8766C17.5109 15.0411 16.8379 15.2428 16.1775 15.4807C15.4266 17.1471 13.5871 20.6964 13.3401 21.1746C12.4935 22.7957 10.6036 24.6081 8.38105 24.5628C7.86723 24.5561 7.36033 24.4435 6.89205 24.2322C6.42377 24.0208 6.0042 23.7152 5.65959 23.3344C4.45005 21.8744 5.0901 19.9211 5.15562 19.7247C5.53676 18.7263 6.24802 17.8879 7.17151 17.3485C10.78 15.0629 15.5576 13.8647 16.8428 13.5727C19.0905 13.0693 23.4499 12.4651 26.1512 12.1883L27.9957 12.0171C26.9878 13.2757 21.2425 22.1916 29.0843 26.355C31.6042 27.6791 35.4646 27.3619 38.2364 25.8012C41.9104 23.7422 44.3849 19.8305 45.3929 15.7576C45.3976 15.7359 45.4097 15.7165 45.4272 15.7027C45.4446 15.6889 45.4664 15.6816 45.4886 15.6821H45.7003C47.5447 15.6385 49.3654 15.258 51.0727 14.5595C54.0965 13.4318 55.1448 12.4601 55.432 12.1228C55.4395 12.1149 55.4491 12.1093 55.4597 12.1068C55.4703 12.1044 55.4814 12.105 55.4916 12.1088C55.5018 12.1125 55.5107 12.1192 55.5171 12.128C55.5235 12.1367 55.5272 12.1472 55.5278 12.158C55.5631 13.5979 56.7121 16.9357 56.7524 17.3284C56.9087 18.7632 56.818 19.4629 56.1376 20.5252C55.4572 21.5875 53.9907 21.9902 52.9172 21.9046C52.5695 21.8744 51.1079 21.819 50.5284 20.7115C50.1957 20.062 50.0899 18.9243 50.4981 18.4108C50.5536 18.3403 50.7602 18.1087 50.6997 17.9073C50.6392 17.7059 50.5082 17.6204 50.4528 17.6405C49.4448 17.9627 48.5125 18.3503 47.5499 18.7128C47.2691 18.8202 47.0183 18.9933 46.8183 19.2175C46.6184 19.4418 46.4752 19.7107 46.4008 20.0016C46.3114 20.3919 46.2591 20.7897 46.2446 21.1897C46.1649 22.2309 46.3957 23.2724 46.9078 24.1827C47.4199 25.093 48.1905 25.8314 49.1223 26.3047C50.4243 27.0364 51.9186 27.3542 53.406 27.2159C54.4511 27.1072 55.472 26.8318 56.4299 26.4003C58.1031 25.7559 65.2494 23.0172 66.721 22.6397C66.7449 22.6338 66.7698 22.633 66.7941 22.6373C66.8183 22.6416 66.8414 22.6509 66.8618 22.6647C66.8822 22.6784 66.8995 22.6963 66.9126 22.7171C66.9257 22.738 66.9342 22.7613 66.9377 22.7856C67.2401 24.1802 68.7571 25.9674 70.5311 26.7024C71.6096 27.1505 72.547 27.2713 74.2756 27.1052C76.0042 26.939 78.1058 26.0278 79.8546 24.9253C80.4543 24.5477 81.7344 23.5156 82.9591 22.4886C82.9591 22.4886 86.9405 19.1961 87.1773 18.9645C87.1987 18.9428 87.2268 18.929 87.2571 18.9251C87.2874 18.9213 87.3181 18.9277 87.3442 18.9434C87.3704 18.9591 87.3905 18.9831 87.4014 19.0116C87.4122 19.0401 87.4132 19.0714 87.4041 19.1005L85.0959 26.2896C85.0809 26.3402 85.078 26.3936 85.0875 26.4456C85.0969 26.4975 85.1185 26.5465 85.1503 26.5886C85.1822 26.6308 85.2235 26.6648 85.271 26.6881C85.3184 26.7113 85.3706 26.7231 85.4235 26.7225H91.0327C91.2021 26.7237 91.3674 26.6712 91.5051 26.5726C91.6427 26.474 91.7455 26.3344 91.7988 26.1738C92.3027 24.7541 93.6584 20.6964 93.8852 19.9815L93.9306 19.8355C95.1149 16.8149 97.9624 13.6482 99.308 13.1045C99.3384 13.0909 99.372 13.0859 99.4051 13.0901C99.4382 13.0943 99.4694 13.1076 99.4955 13.1284C99.5215 13.1492 99.5413 13.1768 99.5527 13.2081C99.564 13.2394 99.5666 13.2732 99.56 13.3059C99.366 14.1849 99.4469 15.1022 99.7918 15.9338C100.296 17.0766 101.757 18.0886 103.859 17.9476C104.4 17.9113 104.932 17.7907 105.436 17.5902C105.799 17.419 105.855 17.6959 105.809 18.0936C105.769 18.3554 105.522 19.9916 105.517 20.1778V20.2131C105.467 21.0523 105.587 21.8931 105.87 22.685C106.467 24.3181 107.676 25.6556 109.241 26.4154C110.339 26.8777 111.533 27.0627 112.719 26.9541C113.542 26.8773 114.356 26.7274 115.153 26.5061C116.677 26.029 118.105 25.2877 119.371 24.3161C119.442 24.2607 119.658 24.0191 119.835 24.0845C120.011 24.15 120.001 24.306 120.016 24.3715C120.208 25.0964 121.266 26.0882 122.198 26.5463C122.407 26.6509 122.624 26.7352 122.849 26.7981C123.268 26.9107 123.7 26.9682 124.134 26.9692C126.785 27.0548 128.533 25.5697 129.808 24.8397C129.884 24.7999 129.945 24.7366 129.981 24.6594C130.017 24.5822 130.028 24.4953 130.01 24.4118M41.8651 15.224C41.3979 17.0613 40.3903 18.7167 38.9722 19.9765C36.8707 21.8845 33.4789 22.5591 32.0325 20.5202C30.7222 18.6574 31.463 15.4505 33.2975 13.5576C34.4375 12.353 35.9639 11.5853 37.6115 11.3878C37.654 11.3854 37.6963 11.3956 37.7331 11.4171C37.7698 11.4386 37.7994 11.4704 37.8181 11.5086C38.5036 12.8176 40.0961 14.1718 41.7844 15.0327C41.8232 15.051 41.8548 15.0818 41.8739 15.1201C41.8931 15.1585 41.8989 15.2021 41.8903 15.2441M42.1473 12.8729C41.5476 12.5004 39.9197 11.3928 40.086 10.4715C40.093 10.3305 40.1359 10.1936 40.2106 10.0738C40.2853 9.95389 40.3894 9.85503 40.513 9.78651C40.6366 9.71798 40.7756 9.68205 40.9169 9.68211C41.0583 9.68217 41.1972 9.71822 41.3208 9.78685C41.8247 10.0184 41.9709 10.6377 42.1624 11.418C42.2706 11.8537 42.3364 12.2988 42.359 12.7471C42.3596 12.7721 42.3536 12.7969 42.3415 12.8189C42.3294 12.8408 42.3116 12.8592 42.2901 12.872C42.2685 12.8848 42.2439 12.8917 42.2188 12.8918C42.1937 12.892 42.169 12.8855 42.1473 12.8729ZM73.6154 17.2579C73.6154 16.3165 73.7918 13.5576 75.717 11.8761C76.1201 11.5237 77.2289 10.547 78.5745 10.7182C78.8498 10.7386 79.1181 10.8152 79.3625 10.9434C79.607 11.0715 79.8225 11.2485 79.9957 11.4633C80.2082 11.8537 80.276 12.3066 80.1872 12.742C79.8899 14.5947 74.7645 16.9206 73.7615 17.3535C73.7456 17.3601 73.7284 17.3627 73.7112 17.3611C73.6941 17.3594 73.6776 17.3537 73.6632 17.3442C73.6488 17.3348 73.6369 17.322 73.6286 17.307C73.6203 17.2919 73.6157 17.2751 73.6154 17.2579ZM121.871 12.5608C121.823 13.0262 121.72 13.4843 121.563 13.9251L120.188 18.6877C119.959 19.7161 119.398 20.6408 118.591 21.3188C117.784 21.9968 116.776 22.3902 115.722 22.4383C115.289 22.4863 114.851 22.4449 114.435 22.3166C114.018 22.1884 113.633 21.9761 113.302 21.6929C112.971 21.4097 112.702 21.0615 112.512 20.6702C112.321 20.2788 112.213 19.8524 112.195 19.4176C112.195 15.7023 114.16 13.6734 114.956 12.6766C116.131 11.2116 118.212 9.92278 119.492 9.97816C121.216 10.0537 121.911 10.985 121.836 12.5608" fill="#4D857F"/>
</g>
<defs>
<clipPath id="clip0_40_84">
<rect width="130" height="29.0333" fill="white"/>
</clipPath>
</defs>
</svg>
