<svg width="105" height="43" viewBox="0 0 105 43" fill="none" xmlns="http://www.w3.org/2000/svg">
<path d="M32.4975 6.46876C30.6016 5.87503 28.521 7.6163 27.8425 10.3429C27.1639 13.0696 28.1419 15.7463 30.0378 16.34C31.9312 16.9338 34.0267 15.22 34.7053 12.4933C35.3863 9.76915 34.3909 7.06248 32.4975 6.46876Z" fill="#4D857F"/>
<path d="M12.9594 16.8539C14.9576 15.2523 14.7181 11.5627 12.3133 8.68642C9.94335 5.79013 6.44087 4.75734 4.48507 6.37138C2.52926 7.98292 2.84608 11.6126 5.20103 14.479C7.5884 17.3254 10.9637 18.453 12.9594 16.8539Z" fill="#4D857F"/>
<path d="M6.27603 19.603C3.8687 18.2409 1.09715 18.6426 0.26144 20.3689C-0.566783 22.0927 0.628148 24.6172 3.06292 25.9519C5.48024 27.2965 8.17194 26.9797 9.06253 25.231C9.95312 23.4797 8.70083 20.9526 6.27603 19.603Z" fill="#4D857F"/>
<path d="M24.7064 5.96211C23.978 2.30995 21.3187 -0.349341 18.7817 0.0373287C16.2421 0.423999 14.7802 3.69697 15.4962 7.32668C16.2546 10.9339 18.7742 13.6356 21.2863 13.2889C23.7984 12.9421 25.365 9.65419 24.7064 5.96211Z" fill="#4D857F"/>
<path d="M21.28 24C21.9733 24 22.62 24.2 23.22 24.6C23.8333 25 24.3267 25.54 24.7 26.22C25.0733 26.9 25.26 27.66 25.26 28.5C25.26 29.3267 25.0733 30.08 24.7 30.76C24.3267 31.44 23.8333 31.9867 23.22 32.4C22.62 32.8 21.9733 33 21.28 33H17.6L17.8 32.64V36.78C17.8 37.1267 17.6933 37.42 17.48 37.66C17.2667 37.8867 16.9867 38 16.64 38C16.3067 38 16.0333 37.8867 15.82 37.66C15.6067 37.42 15.5 37.1267 15.5 36.78V25.22C15.5 24.8733 15.6133 24.5867 15.84 24.36C16.08 24.12 16.3733 24 16.72 24H21.28ZM21.28 30.72C21.5333 30.72 21.78 30.6133 22.02 30.4C22.26 30.1867 22.46 29.9133 22.62 29.58C22.78 29.2333 22.86 28.8733 22.86 28.5C22.86 28.1133 22.78 27.7533 22.62 27.42C22.46 27.0867 22.26 26.82 22.02 26.62C21.78 26.4067 21.5333 26.3 21.28 26.3H17.56L17.8 25.94V31.04L17.58 30.72H21.28ZM36.0131 27.1C36.3598 27.1 36.6465 27.2133 36.8731 27.44C37.0998 27.6667 37.2131 27.96 37.2131 28.32V36.78C37.2131 37.1267 37.0998 37.42 36.8731 37.66C36.6465 37.8867 36.3598 38 36.0131 38C35.6665 38 35.3798 37.8867 35.1531 37.66C34.9265 37.42 34.8131 37.1267 34.8131 36.78V35.8L35.2531 35.98C35.2531 36.1533 35.1598 36.3667 34.9731 36.62C34.7865 36.86 34.5331 37.1 34.2131 37.34C33.8931 37.58 33.5131 37.7867 33.0731 37.96C32.6465 38.12 32.1798 38.2 31.6731 38.2C30.7531 38.2 29.9198 37.9667 29.1731 37.5C28.4265 37.02 27.8331 36.3667 27.3931 35.54C26.9665 34.7 26.7531 33.74 26.7531 32.66C26.7531 31.5667 26.9665 30.6067 27.3931 29.78C27.8331 28.94 28.4198 28.2867 29.1531 27.82C29.8865 27.34 30.6998 27.1 31.5931 27.1C32.1665 27.1 32.6931 27.1867 33.1731 27.36C33.6531 27.5333 34.0665 27.7533 34.4131 28.02C34.7731 28.2867 35.0465 28.56 35.2331 28.84C35.4331 29.1067 35.5331 29.3333 35.5331 29.52L34.8131 29.78V28.32C34.8131 27.9733 34.9265 27.6867 35.1531 27.46C35.3798 27.22 35.6665 27.1 36.0131 27.1ZM31.9731 36C32.5598 36 33.0731 35.8533 33.5131 35.56C33.9531 35.2667 34.2931 34.8667 34.5331 34.36C34.7865 33.8533 34.9131 33.2867 34.9131 32.66C34.9131 32.02 34.7865 31.4467 34.5331 30.94C34.2931 30.4333 33.9531 30.0333 33.5131 29.74C33.0731 29.4467 32.5598 29.3 31.9731 29.3C31.3998 29.3 30.8931 29.4467 30.4531 29.74C30.0131 30.0333 29.6665 30.4333 29.4131 30.94C29.1731 31.4467 29.0531 32.02 29.0531 32.66C29.0531 33.2867 29.1731 33.8533 29.4131 34.36C29.6665 34.8667 30.0131 35.2667 30.4531 35.56C30.8931 35.8533 31.3998 36 31.9731 36ZM52.0145 27.3C52.3212 27.3 52.5879 27.42 52.8145 27.66C53.0412 27.8867 53.1545 28.18 53.1545 28.54C53.1545 28.6333 53.1479 28.72 53.1345 28.8C53.1212 28.8667 53.1012 28.9333 53.0745 29L50.0145 37.24C49.9212 37.5067 49.7545 37.7133 49.5145 37.86C49.2745 37.9933 49.0212 38.04 48.7545 38C48.3012 37.9733 47.9612 37.72 47.7345 37.24L45.7545 31.54L46.2745 31.56L44.4145 37.24C44.1879 37.72 43.8479 37.9733 43.3945 38C43.1412 38.04 42.8879 37.9933 42.6345 37.86C42.3945 37.7133 42.2279 37.5067 42.1345 37.24L39.0745 29C39.0212 28.8533 38.9945 28.7 38.9945 28.54C38.9945 28.22 39.1012 27.9333 39.3145 27.68C39.5279 27.4267 39.8212 27.3 40.1945 27.3C40.4479 27.3 40.6745 27.36 40.8745 27.48C41.0745 27.6 41.2145 27.7933 41.2945 28.06L43.7145 34.62L43.2145 34.58L45.0345 29.64C45.2479 29.1467 45.6145 28.9 46.1345 28.9C46.4279 28.9 46.6479 28.9667 46.7945 29.1C46.9545 29.22 47.0812 29.4 47.1745 29.64L48.9945 34.58L48.3945 34.66L50.8545 28.06C51.0145 27.5533 51.4012 27.3 52.0145 27.3ZM70.6516 24.68C70.9982 24.8533 71.1982 25.1267 71.2516 25.5C71.3182 25.8733 71.2249 26.2133 70.9716 26.52C70.7982 26.76 70.5716 26.8933 70.2916 26.92C70.0249 26.9467 69.7516 26.8933 69.4716 26.76C69.1516 26.6133 68.8116 26.5 68.4516 26.42C68.1049 26.34 67.7382 26.3 67.3516 26.3C66.6316 26.3 65.9849 26.4133 65.4116 26.64C64.8516 26.8667 64.3716 27.1933 63.9716 27.62C63.5716 28.0333 63.2649 28.5267 63.0516 29.1C62.8516 29.6733 62.7516 30.3067 62.7516 31C62.7516 31.8133 62.8649 32.52 63.0916 33.12C63.3316 33.72 63.6582 34.22 64.0716 34.62C64.4849 35.02 64.9716 35.32 65.5316 35.52C66.0916 35.7067 66.6982 35.8 67.3516 35.8C67.7116 35.8 68.0716 35.7667 68.4316 35.7C68.7916 35.6333 69.1382 35.5133 69.4716 35.34C69.7516 35.2067 70.0249 35.16 70.2916 35.2C70.5716 35.24 70.8049 35.38 70.9916 35.62C71.2582 35.9533 71.3516 36.3 71.2716 36.66C71.2049 37.0067 71.0049 37.26 70.6716 37.42C70.3249 37.5933 69.9649 37.74 69.5916 37.86C69.2316 37.9667 68.8649 38.0467 68.4916 38.1C68.1182 38.1667 67.7382 38.2 67.3516 38.2C66.3916 38.2 65.4782 38.0467 64.6116 37.74C63.7582 37.4333 62.9916 36.98 62.3116 36.38C61.6449 35.78 61.1182 35.0333 60.7316 34.14C60.3449 33.2333 60.1516 32.1867 60.1516 31C60.1516 29.9733 60.3249 29.0267 60.6716 28.16C61.0316 27.2933 61.5316 26.5467 62.1716 25.92C62.8249 25.28 63.5916 24.7867 64.4716 24.44C65.3516 24.08 66.3116 23.9 67.3516 23.9C67.9382 23.9 68.5116 23.9667 69.0716 24.1C69.6316 24.2333 70.1582 24.4267 70.6516 24.68ZM81.9506 27.1C82.2973 27.1 82.584 27.2133 82.8106 27.44C83.0373 27.6667 83.1506 27.96 83.1506 28.32V36.78C83.1506 37.1267 83.0373 37.42 82.8106 37.66C82.584 37.8867 82.2973 38 81.9506 38C81.604 38 81.3173 37.8867 81.0906 37.66C80.864 37.42 80.7506 37.1267 80.7506 36.78V35.8L81.1906 35.98C81.1906 36.1533 81.0973 36.3667 80.9106 36.62C80.724 36.86 80.4706 37.1 80.1506 37.34C79.8306 37.58 79.4506 37.7867 79.0106 37.96C78.584 38.12 78.1173 38.2 77.6106 38.2C76.6906 38.2 75.8573 37.9667 75.1106 37.5C74.364 37.02 73.7706 36.3667 73.3306 35.54C72.904 34.7 72.6906 33.74 72.6906 32.66C72.6906 31.5667 72.904 30.6067 73.3306 29.78C73.7706 28.94 74.3573 28.2867 75.0906 27.82C75.824 27.34 76.6373 27.1 77.5306 27.1C78.104 27.1 78.6306 27.1867 79.1106 27.36C79.5906 27.5333 80.004 27.7533 80.3506 28.02C80.7106 28.2867 80.984 28.56 81.1706 28.84C81.3706 29.1067 81.4706 29.3333 81.4706 29.52L80.7506 29.78V28.32C80.7506 27.9733 80.864 27.6867 81.0906 27.46C81.3173 27.22 81.604 27.1 81.9506 27.1ZM77.9106 36C78.4973 36 79.0106 35.8533 79.4506 35.56C79.8906 35.2667 80.2306 34.8667 80.4706 34.36C80.724 33.8533 80.8506 33.2867 80.8506 32.66C80.8506 32.02 80.724 31.4467 80.4706 30.94C80.2306 30.4333 79.8906 30.0333 79.4506 29.74C79.0106 29.4467 78.4973 29.3 77.9106 29.3C77.3373 29.3 76.8306 29.4467 76.3906 29.74C75.9506 30.0333 75.604 30.4333 75.3506 30.94C75.1106 31.4467 74.9906 32.02 74.9906 32.66C74.9906 33.2867 75.1106 33.8533 75.3506 34.36C75.604 34.8667 75.9506 35.2667 76.3906 35.56C76.8306 35.8533 77.3373 36 77.9106 36ZM86.9492 38C86.6026 38 86.3159 37.8867 86.0892 37.66C85.8626 37.42 85.7492 37.1267 85.7492 36.78V28.52C85.7492 28.1733 85.8626 27.8867 86.0892 27.66C86.3159 27.42 86.6026 27.3 86.9492 27.3C87.2959 27.3 87.5826 27.42 87.8092 27.66C88.0359 27.8867 88.1492 28.1733 88.1492 28.52V30.4L88.0092 29.06C88.1559 28.74 88.3426 28.46 88.5692 28.22C88.8092 27.9667 89.0759 27.76 89.3692 27.6C89.6626 27.4267 89.9759 27.3 90.3092 27.22C90.6426 27.14 90.9759 27.1 91.3092 27.1C91.7092 27.1 92.0426 27.2133 92.3092 27.44C92.5892 27.6667 92.7292 27.9333 92.7292 28.24C92.7292 28.68 92.6159 29 92.3892 29.2C92.1626 29.3867 91.9159 29.48 91.6492 29.48C91.3959 29.48 91.1626 29.4333 90.9492 29.34C90.7492 29.2467 90.5159 29.2 90.2492 29.2C90.0092 29.2 89.7626 29.26 89.5092 29.38C89.2692 29.4867 89.0426 29.66 88.8292 29.9C88.6292 30.14 88.4626 30.44 88.3292 30.8C88.2092 31.1467 88.1492 31.56 88.1492 32.04V36.78C88.1492 37.1267 88.0359 37.42 87.8092 37.66C87.5826 37.8867 87.2959 38 86.9492 38ZM99.0119 38.2C97.8785 38.2 96.8919 37.9667 96.0519 37.5C95.2252 37.02 94.5852 36.3733 94.1319 35.56C93.6919 34.7467 93.4719 33.8267 93.4719 32.8C93.4719 31.6 93.7119 30.58 94.1919 29.74C94.6852 28.8867 95.3252 28.2333 96.1119 27.78C96.8985 27.3267 97.7319 27.1 98.6119 27.1C99.2919 27.1 99.9319 27.24 100.532 27.52C101.145 27.8 101.685 28.1867 102.152 28.68C102.619 29.16 102.985 29.72 103.252 30.36C103.532 31 103.672 31.68 103.672 32.4C103.659 32.72 103.532 32.98 103.292 33.18C103.052 33.38 102.772 33.48 102.452 33.48H94.8119L94.2119 31.48H101.552L101.112 31.88V31.34C101.085 30.9533 100.945 30.6067 100.692 30.3C100.452 29.9933 100.145 29.7533 99.7719 29.58C99.4119 29.3933 99.0252 29.3 98.6119 29.3C98.2119 29.3 97.8385 29.3533 97.4919 29.46C97.1452 29.5667 96.8452 29.7467 96.5919 30C96.3385 30.2533 96.1385 30.5933 95.9919 31.02C95.8452 31.4467 95.7719 31.9867 95.7719 32.64C95.7719 33.36 95.9185 33.9733 96.2119 34.48C96.5185 34.9733 96.9052 35.3533 97.3719 35.62C97.8519 35.8733 98.3585 36 98.8919 36C99.3852 36 99.7785 35.96 100.072 35.88C100.365 35.8 100.599 35.7067 100.772 35.6C100.959 35.48 101.125 35.38 101.272 35.3C101.512 35.18 101.739 35.12 101.952 35.12C102.245 35.12 102.485 35.22 102.672 35.42C102.872 35.62 102.972 35.8533 102.972 36.12C102.972 36.48 102.785 36.8067 102.412 37.1C102.065 37.3933 101.579 37.6533 100.952 37.88C100.325 38.0933 99.6785 38.2 99.0119 38.2Z" fill="#4D857F"/>
</svg>
