<svg width="85" height="85" viewBox="0 0 85 85" fill="none" xmlns="http://www.w3.org/2000/svg">
<circle cx="42.5" cy="42.5" r="42.5" fill="#D5F0ED"/>
<path d="M28.9167 30.9167V48.4167H55.1667V30.9167H28.9167ZM28.9167 28H55.1667C55.9402 28 56.6821 28.3073 57.2291 28.8543C57.776 29.4013 58.0833 30.1431 58.0833 30.9167V48.4167C58.0833 49.1896 57.7771 49.9333 57.2229 50.4729C56.6833 51.0271 55.9396 51.3333 55.1667 51.3333H44.9583V54.25H47.875V57.1667H36.2083V54.25H39.125V51.3333H28.9167C28.1437 51.3333 27.4 51.0271 26.8604 50.4729C26.3063 49.9333 26 49.1896 26 48.4167V30.9167C26 29.2979 27.2979 28 28.9167 28ZM40.35 38.1062C40.8021 37.6687 41.4146 37.4062 42.0417 37.4062C42.6687 37.4208 43.2812 37.6687 43.7333 38.1208C44.1708 38.5583 44.4333 39.1708 44.4333 39.7979C44.4333 40.4396 44.1708 41.0375 43.7333 41.4896C43.2812 41.9417 42.6687 42.1896 42.0417 42.1896C41.4146 42.1896 40.8021 41.9271 40.35 41.4896C39.9125 41.0375 39.65 40.4396 39.65 39.7979C39.65 39.1708 39.9125 38.5583 40.35 38.1062ZM39.2271 42.5833C39.5916 42.962 40.0287 43.2631 40.5123 43.4689C40.996 43.6746 41.5161 43.7806 42.0417 43.7806C42.5672 43.7806 43.0874 43.6746 43.571 43.4689C44.0546 43.2631 44.4918 42.962 44.8562 42.5833C45.6 41.8542 46.0229 40.8479 46.0229 39.7979C46.0229 38.7479 45.6 37.7271 44.8562 36.9833C44.1125 36.2396 43.0917 35.8167 42.0417 35.8167C40.9917 35.8167 39.9708 36.2396 39.2271 36.9833C38.4833 37.7271 38.0604 38.7479 38.0604 39.7979C38.0604 40.8479 38.4833 41.8542 39.2271 42.5833ZM33.2917 39.7979C33.9827 38.0402 35.187 36.5312 36.7476 35.4673C38.3082 34.4035 40.1529 33.8341 42.0417 33.8333C46.0229 33.8333 49.4208 36.3125 50.7917 39.7979C50.1055 41.559 48.9025 43.0713 47.3408 44.1359C45.7791 45.2005 43.9317 45.7675 42.0417 45.7625C38.0604 45.7625 34.6625 43.3125 33.2917 39.7979Z" fill="#4D857F"/>
</svg>
