<svg width="180" height="35" viewBox="0 0 180 35" fill="none" xmlns="http://www.w3.org/2000/svg">
<g clip-path="url(#clip0_38_12)">
<path d="M144.582 17.1621C146.479 15.2496 148.549 14.9418 150.728 15.8431C153.017 16.7884 154.02 18.7448 154.216 21.119C154.303 22.1522 154.26 23.2514 154.063 24.2845C153.257 28.5492 148.375 30.5717 144.909 27.8018C144.909 29.3406 144.909 30.7256 144.909 32.1324C144.888 33.5833 144.604 33.869 143.188 33.8911C142.817 33.8911 142.468 33.913 142.098 33.8911C140.965 33.8471 140.594 33.4953 140.571 32.3523C140.55 27.2962 140.55 22.2402 140.571 17.1841C140.571 16.063 140.986 15.6673 142.098 15.6673C143.143 15.6893 144.364 15.3815 144.582 17.1621ZM144.734 22.2181C144.844 24.3505 146.13 25.7574 147.786 25.4276C149.028 25.1859 149.835 24.1746 149.923 22.7457C150.032 20.9872 149.356 19.6242 148.157 19.2066C147.045 18.8328 145.824 19.2724 145.302 20.3496C145.019 20.9432 144.909 21.6027 144.734 22.2181Z" fill="#4D857F"/>
<path d="M87.1068 17.0961C88.9158 15.2716 90.9865 14.9419 93.1878 15.8431C95.4764 16.7885 96.479 18.7449 96.6751 21.1191C96.7623 22.1522 96.7188 23.2514 96.5226 24.2846C95.7379 28.5273 90.8775 30.5717 87.3684 27.8238C87.3684 29.3187 87.3684 30.6815 87.3684 32.0445C87.3684 33.6273 87.1068 33.8911 85.5375 33.913C85.276 33.913 85.0362 33.913 84.7747 33.913C83.3797 33.8911 83.0527 33.5614 83.0527 32.1544C83.0527 27.6919 83.0527 23.2294 83.0527 18.7669C83.0527 18.1733 83.031 17.6018 83.0527 17.0082C83.0964 16.1729 83.5322 15.7772 84.3605 15.7113C86.2132 15.5574 86.6273 15.7333 87.1068 17.0961ZM92.5121 22.394C92.3813 20.4155 91.4006 19.1406 89.8967 19.1186C88.371 19.0966 87.3465 20.2837 87.303 22.1303C87.2594 24.1087 88.2838 25.6036 89.7658 25.4497C90.4852 25.3837 91.2916 24.8561 91.8147 24.3066C92.2506 23.823 92.316 23.0315 92.5121 22.394Z" fill="#4D857F"/>
<path d="M102.821 27.8678C102.821 29.3626 102.821 30.7695 102.821 32.1764C102.821 33.5614 102.516 33.869 101.187 33.8911C101.034 33.8911 100.903 33.8911 100.751 33.8911C98.6802 33.8911 98.5059 33.7152 98.5059 31.6708C98.5059 26.9445 98.5059 22.2402 98.5059 17.5139C98.5059 16.6565 98.5495 15.8651 99.6175 15.6893C101.383 15.4034 102.124 15.7333 102.451 16.8324C103.475 16.3707 104.456 15.6673 105.524 15.4915C108.488 14.9638 110.973 16.5246 111.78 19.4703C112.15 20.8112 112.259 22.3061 112.106 23.691C111.562 28.1536 106.745 30.7475 102.821 27.8678ZM102.647 22.1303C102.712 24.3285 104.02 25.7575 105.698 25.4057C106.941 25.1418 107.747 24.0867 107.834 22.5918C107.922 20.9432 107.202 19.5803 106.025 19.1845C104.892 18.8328 103.715 19.2724 103.17 20.3716C102.909 20.9212 102.8 21.5587 102.647 22.1303Z" fill="#4D857F"/>
<path d="M57.7479 23.1194C57.7479 24.5703 57.7696 25.8454 57.7479 27.0984C57.7261 28.4393 57.3991 28.7691 56.0478 28.791C55.8298 28.791 55.6119 28.791 55.3939 28.791C53.6503 28.813 53.3669 28.5492 53.3669 26.8125C53.3669 21.9983 53.3669 17.2061 53.3669 12.4138C53.3669 10.919 53.6721 10.6112 55.1324 10.6112C57.0504 10.6112 58.9902 10.5892 60.9082 10.6112C64.4392 10.6552 66.6842 13.1173 66.6842 16.8983C66.6842 20.6794 64.3956 23.1194 60.8647 23.1415C59.9056 23.1415 58.9249 23.1194 57.7479 23.1194ZM57.7696 19.3604C58.6633 19.3604 59.4044 19.4264 60.1672 19.3384C61.3877 19.2285 62.0634 18.525 62.2377 17.294C62.3686 16.3048 62.2596 15.1836 61.3006 14.8099C60.2979 14.4362 59.1211 14.5242 58.0312 14.4582C57.9658 14.4582 57.7914 14.744 57.7914 14.8979C57.7479 16.3707 57.7696 17.8216 57.7696 19.3604Z" fill="#4D857F"/>
<path fill-rule="evenodd" clip-rule="evenodd" d="M137.586 11.4686C138.61 11.9082 138.763 12.6117 138.283 13.6449C138.131 13.9746 137.935 14.2824 137.782 14.6121C137.367 15.5134 136.736 15.6013 135.907 15.2496C135.166 14.9419 134.425 14.6121 133.662 14.4582C133.161 14.3483 132.551 14.3703 132.071 14.5462C131.679 14.6781 131.156 15.0737 131.112 15.4034C131.047 15.7992 131.309 16.4147 131.636 16.7004C132.116 17.1182 132.747 17.3819 133.313 17.6677C134.317 18.1513 135.384 18.547 136.365 19.0966C138.174 20.1078 139.112 21.6466 138.959 23.779C138.806 25.8893 137.847 27.5381 135.93 28.3733C132.769 29.7582 129.761 29.1648 126.95 27.3182C126.252 26.8566 126.186 26.2191 126.601 25.4936C126.732 25.2738 126.884 25.0539 127.015 24.8561C128.039 23.3613 128.214 23.3833 129.848 24.1087C130.851 24.5484 131.962 24.8342 133.03 24.9221C133.51 24.966 134.273 24.3945 134.448 23.9328C134.578 23.5811 134.055 22.8557 133.641 22.4819C133.204 22.0863 132.572 21.8885 132.028 21.6027C131.243 21.2289 130.415 20.9212 129.674 20.5036C127.233 19.1625 126.231 17.2281 126.688 14.8539C127.146 12.5018 129.064 10.7651 131.614 10.4134C132.116 10.3474 132.617 10.3474 133.14 10.3035C134.23 10.3474 136.191 10.875 137.586 11.4686Z" fill="#4D857F"/>
<path d="M163.044 15.3815C167.119 15.4254 169.974 17.7996 170.411 21.3827C170.89 25.3397 168.231 28.6591 164.22 29.0328C161.605 29.2747 159.185 28.769 157.376 26.7026C155.545 24.6142 155.262 22.1522 156.264 19.6242C157.268 17.0742 159.338 15.8431 161.954 15.4475C162.346 15.4035 162.76 15.4035 163.044 15.3815ZM166.051 22.35C166.073 20.4595 164.874 19.0745 163.174 19.0306C161.539 18.9866 160.166 20.4375 160.123 22.2181C160.101 24.0427 161.387 25.4496 163.087 25.4496C164.809 25.4277 166.029 24.1526 166.051 22.35Z" fill="#4D857F"/>
<path fill-rule="evenodd" clip-rule="evenodd" d="M119.277 23.4932C119.866 21.3169 120.432 19.3164 120.912 17.2939C121.196 16.1509 121.783 15.6672 122.982 15.6672C126.012 15.6892 126.1 15.7991 125.053 18.6788C123.637 22.482 122.241 26.285 120.847 30.088C119.648 33.2975 116.836 34.7923 113.872 33.935C113.065 33.6932 112.587 33.2755 112.761 32.3742C113.022 30.9893 113.72 30.2418 114.701 30.4836C115.66 30.7254 116.313 30.3957 116.88 29.6923C117.468 28.9669 117.337 28.2854 116.988 27.472C115.551 24.2405 114.178 20.9871 112.782 17.7336C112.129 16.2169 112.455 15.7112 114.069 15.7112C116.836 15.6892 116.836 15.6892 117.686 18.3272C118.187 19.9759 118.689 21.6466 119.277 23.4932Z" fill="#4D857F"/>
<path fill-rule="evenodd" clip-rule="evenodd" d="M76.9282 27.0984C75.6859 28.6372 74.2038 29.1647 72.4165 29.0768C70.1061 28.9449 68.515 27.6039 68.4061 25.2957C68.2753 22.526 68.3407 19.7341 68.3407 16.9642C68.3407 16.7224 68.3843 16.4146 68.5368 16.2388C69.4523 15.2496 70.6511 15.7112 71.7191 15.7772C72.5691 15.8212 72.6563 16.6564 72.6563 17.3819C72.6563 19.3164 72.6563 21.2509 72.6563 23.2073C72.6563 23.9548 72.6563 24.8781 73.5281 24.988C74.2256 25.076 75.1192 24.8341 75.7077 24.4384C76.6667 23.779 76.7974 22.5918 76.8193 21.4708C76.8411 20.0858 76.7974 18.7009 76.8411 17.294C76.8629 16.063 77.2116 15.7333 78.4104 15.6892C81.0912 15.6233 81.1784 15.6892 81.1784 18.3712C81.1784 21.229 81.1566 24.0867 81.1784 26.9224C81.1784 27.8897 81.0694 28.6811 79.8924 28.813C77.8001 29.0329 77.2988 28.769 76.9282 27.0984Z" fill="#4D857F"/>
<path fill-rule="evenodd" clip-rule="evenodd" d="M172.568 19.4484C170.912 19.0087 170.759 18.7669 170.824 17.2281C170.868 16.063 171.609 15.8871 172.655 15.8651C172.655 15.0737 172.634 14.3263 172.655 13.5569C172.677 12.6337 173.113 12.1281 174.072 12.1281C174.334 12.1281 174.574 12.1281 174.835 12.1281C176.6 12.1281 176.862 12.3918 176.862 14.1285C176.862 14.6781 176.862 15.2056 176.862 15.6453C177.755 15.8871 178.605 15.9751 179.26 16.3707C179.564 16.5466 179.543 17.36 179.543 17.8876C179.543 19.0527 179.369 19.1406 176.949 19.3604C176.949 20.7893 176.818 22.2402 177.014 23.669C177.08 24.1306 177.908 24.6582 178.474 24.8342C179.695 25.2299 179.913 25.5376 179.761 27.4941C179.673 28.5053 178.998 28.7251 178.191 28.769C174.726 28.9669 172.612 26.9445 172.59 23.4932C172.59 22.5039 172.59 21.5148 172.59 20.5255C172.568 20.2178 172.568 19.844 172.568 19.4484Z" fill="#4D857F"/>
<path d="M21.4739 2.37439C24.6594 -0.510756 29.1364 -0.539041 32.1497 1.10154C35.4788 2.88354 36.8563 6.47584 35.1344 9.87014C33.7855 12.529 31.9202 14.7918 29.5956 16.6305C27.7875 18.073 25.836 19.3741 23.8558 20.6471C23.2245 21.043 23.0236 21.4107 22.9662 22.1461C22.7366 25.2294 25.2334 29.4156 29.6817 30.4056C34.0725 31.3957 38.4634 28.9065 39.8984 24.6071C40.0992 23.9848 40.3862 23.4474 41.075 23.2776C42.2804 22.9665 43.2274 24.0131 42.883 25.2294C42.4239 26.8417 41.649 28.2842 40.5297 29.5571C35.3353 35.4688 26.2379 34.9031 21.8183 28.4257C21.7322 28.2842 21.6173 28.1428 21.4739 27.9448C21.3304 28.1711 21.1869 28.3407 21.0721 28.5105C18.3744 32.2442 14.701 34.0828 10.0519 33.5454C5.11571 32.9797 1.87277 30.1794 0.179559 25.5971C0.122161 25.4273 0.064764 25.2859 0.0360655 25.1162C-0.136126 24.2676 0.323051 23.5039 1.09791 23.3059C1.90147 23.1079 2.67634 23.4756 2.96331 24.3242C3.4225 25.6819 4.05387 26.9548 5.08701 27.9731C7.58379 30.4339 10.5397 31.3108 13.9262 30.2642C17.2552 29.2176 19.2641 26.8699 19.9242 23.4756C20.039 22.8251 20.0103 22.1461 19.9528 21.4673C19.9242 21.2693 19.6658 21.043 19.465 20.9016C16.6525 19.2893 14.0697 17.4507 11.7738 15.1879C10.2241 13.6321 8.93262 11.9067 7.89947 9.955C6.09146 6.61727 7.44029 3.13812 10.3962 1.32783C13.7827 -0.737043 18.2884 -0.369327 21.3018 2.26125C21.3304 2.28954 21.3878 2.31782 21.4739 2.37439ZM9.85098 7.01327C9.90837 7.38098 9.93707 7.74871 10.0232 8.11643C10.1954 8.82357 10.7406 9.19129 11.3433 9.10642C12.032 8.99328 12.3765 8.54071 12.3765 7.777C12.319 6.13641 13.18 5.31613 14.8732 5.42927C15.562 5.45755 16.0498 5.06155 16.136 4.41098C16.222 3.78869 15.7916 3.19469 15.1315 3.10982C14.6149 3.05325 14.0697 3.08154 13.5531 3.13812C11.2285 3.3644 9.85098 4.83526 9.85098 7.01327Z" fill="#4D857F"/>
</g>
<defs>
<clipPath id="clip0_38_12">
<rect width="180" height="34.3191" fill="white"/>
</clipPath>
</defs>
</svg>
