<svg width="130" height="48" viewBox="0 0 130 48" fill="none" xmlns="http://www.w3.org/2000/svg">
<path d="M57.13 42.8704H53.6323C53.5157 42.8704 53.4574 42.7558 53.4574 42.6985V32.3248C53.5157 32.1528 53.5157 31.9236 53.4574 31.7516C53.2825 30.7773 52.3498 30.1469 51.3587 30.2615C50.3677 30.4334 49.7265 31.3504 49.843 32.3248V45.2776C49.843 45.7934 50.2511 46.2519 50.8341 46.3092H57.13C57.1883 46.3092 57.2466 46.3092 57.3049 46.3092C58.2377 46.2519 58.9372 45.4495 58.8789 44.5325C58.8789 43.4436 58.1211 42.8131 57.13 42.8704ZM44.4798 31.1212L35.1525 43.5009C34.9193 43.7874 34.8027 44.1313 34.8027 44.5325C34.8027 45.0483 35.0359 45.6215 35.5605 45.908C36.3767 46.4239 37.3677 46.2519 37.9507 45.5642L39.7578 43.157H44.13V44.5325C44.1883 45.5069 45.0045 46.2519 45.9372 46.1946C46.9282 46.1946 47.6278 45.3922 47.6278 44.5325V32.2674C47.6278 31.7516 47.3946 31.2358 47.0448 30.9492C46.287 30.2615 45.1211 30.3188 44.4798 31.1212ZM44.0717 39.6609H42.4395C42.3812 39.6609 42.3229 39.6036 42.3229 39.5463L44.0717 37.1964C44.0717 37.1391 44.0717 39.6609 44.0717 39.6609ZM39.3498 32.3248C39.3498 31.4077 38.5919 30.6627 37.7175 30.6627C37.2511 30.6627 36.7847 30.8346 36.4933 31.1212L32.5291 35.1904C32.4708 35.2477 32.4126 35.2477 32.3543 35.2477C32.296 35.2477 32.2377 35.2477 32.2377 35.1904L28.2735 31.1212C27.9821 30.8346 27.5157 30.6054 27.0493 30.6054C26.1166 30.6054 25.417 31.3504 25.417 32.2101C25.417 32.6113 25.5919 33.0698 25.8251 33.3564L30.6637 38.8012L30.722 44.5325C30.722 45.4495 31.4798 46.1946 32.4126 46.1946C33.3453 46.1946 34.1031 45.4495 34.1031 44.5325L34.2197 38.8585L38.9417 33.4137C39.2332 33.0698 39.3498 32.6686 39.3498 32.3248ZM18.8879 30.6054C14.5157 30.6054 10.9596 34.1015 10.9596 38.4C10.9596 42.6985 14.5157 46.1946 18.8879 46.1946C23.2601 46.1946 26.8161 42.6412 26.8161 38.3427C26.8161 34.1588 23.2601 30.6627 18.8879 30.6054ZM18.8879 42.5266C16.4978 42.5266 14.6323 40.6925 14.6323 38.3427C14.6323 35.9928 16.4978 34.1588 18.8879 34.1588C21.278 34.1588 23.1435 35.9928 23.1435 38.3427C23.1435 40.6925 21.278 42.5266 18.8879 42.5266ZM102.543 30.2615C101.668 30.3188 100.969 31.0066 100.969 31.8089V39.0877C100.969 39.1451 100.91 39.2024 100.852 39.2024C100.794 39.2024 100.794 39.2024 100.794 39.1451L96.4798 31.637C95.8386 30.4907 94.3229 30.1469 93.2152 30.8346C92.574 31.2358 92.1076 31.9809 92.0493 32.726V44.6472C92.1076 45.6215 92.9821 46.3092 93.8565 46.2519C94.7309 46.1946 95.4305 45.5069 95.4888 44.6472V37.3683C95.4888 37.311 95.5471 37.2537 95.6054 37.2537C95.6637 37.2537 95.6637 37.2537 95.6637 37.311L100.094 44.991C100.677 46.08 102.076 46.4239 103.184 45.8507C103.942 45.4495 104.35 44.7045 104.35 43.9594V31.8663C104.291 30.9492 103.534 30.2042 102.543 30.2615ZM8.16143 39.8328C9.56054 38.9731 10.4933 37.483 10.435 35.8782C10.435 35.8782 10.435 35.8782 10.435 35.8209C10.4933 33.0125 8.16143 30.6627 5.30493 30.6054C3.90583 30.4907 2.44843 30.9492 1.4574 31.9236C0.349776 33.0125 0 34.388 0 35.8782L0.233184 44.5325C0.233184 45.4495 0.991031 46.1946 1.92377 46.1946C2.8565 46.1946 3.61435 45.4495 3.61435 44.5325L3.67265 40.406C3.67265 40.2913 3.73094 40.234 3.84753 40.234C3.84753 40.234 3.90583 40.234 3.96413 40.234L8.10314 45.7934C8.39462 46.08 8.74439 46.1946 9.21076 46.1946C10.1435 46.1946 10.843 45.4495 10.9013 44.5898C10.9013 44.3606 10.843 44.1313 10.7265 43.8448L8.16143 39.8328ZM5.18834 37.4257C5.07175 37.4257 5.01345 37.4257 4.89686 37.4257C3.90583 37.3683 3.26457 36.5086 3.32287 35.6489C3.38117 34.6746 4.25561 34.0442 5.13004 34.1015C5.24664 34.1015 5.30493 34.1015 5.42152 34.1015C6.41256 34.1588 7.05381 35.0185 6.99551 35.8782C6.93722 36.7952 6.06278 37.6549 5.18834 37.4257ZM75.6682 40.9791C75.435 40.9791 75.1435 41.0364 74.852 41.151L73.4529 42.068C72.8117 42.4692 71.9955 42.6985 71.1794 42.6985C68.7309 42.5839 66.9238 40.5206 67.0404 38.228C67.1569 35.9928 68.9058 34.2734 71.1794 34.1588C71.9955 34.1588 72.7534 34.388 73.4529 34.7892L74.7937 35.7063C75.0269 35.8209 75.2601 35.8782 75.6099 35.8782C76.5426 35.8782 77.3004 35.1331 77.3004 34.2161C77.3004 33.8722 77.1838 33.4137 76.8924 33.1271C75.5516 31.5797 73.5695 30.6627 71.4126 30.6627C67.0404 30.6627 63.4843 34.1588 63.4843 38.4573C63.4843 42.5839 66.7489 46.0227 70.9462 46.2519C73.2197 46.2519 75.3184 45.3349 76.8924 43.7301C77.1255 43.4436 77.3004 43.0997 77.2421 42.6412C77.417 41.7242 76.6009 40.9791 75.6682 40.9791ZM108.081 30.2042C107.031 30.2042 106.274 31.0639 106.274 31.9809V44.5325C106.274 45.5642 107.148 46.3092 108.081 46.3092C109.13 46.3092 109.888 45.4495 109.888 44.5325V31.9809C109.888 31.0066 109.13 30.2042 108.081 30.2042ZM81.556 31.0639C81.2063 30.72 80.6816 30.4907 80.1569 30.4907C79.1076 30.4907 78.3498 30.9492 78.3498 31.9809V44.5325C78.3498 45.5069 79.1659 46.1946 80.0986 46.1946C81.0314 46.1946 81.8475 45.4495 81.9058 44.5325V43.157H86.278L88.0852 45.5642C88.3767 45.9654 88.9596 46.1946 89.4843 46.1946C90.4753 46.1946 91.1749 45.3922 91.1749 44.5325C91.1749 44.1886 91.0583 43.7874 90.8251 43.5009L81.556 31.0639ZM83.6547 39.5463C83.6547 39.6036 83.5964 39.6609 83.5381 39.6609H81.9058V37.0818L83.6547 39.4889C83.713 39.4889 83.713 39.4889 83.6547 39.5463ZM122.363 30.2615C121.489 30.3188 120.789 31.0066 120.789 31.8089V39.0877C120.789 39.1451 120.731 39.2024 120.673 39.2024C120.614 39.2024 120.614 39.2024 120.556 39.1451L116.3 31.637C115.659 30.4907 114.143 30.1469 113.036 30.8346C112.395 31.2358 111.928 31.9809 111.87 32.726V44.6472C111.87 45.6215 112.686 46.3666 113.619 46.3666C114.552 46.3666 115.368 45.5642 115.368 44.6472V37.3683C115.368 37.311 115.426 37.2537 115.484 37.2537C115.543 37.2537 115.543 37.2537 115.543 37.311L119.973 44.991C120.556 46.08 121.955 46.4239 123.063 45.8507C123.821 45.4495 124.229 44.7045 124.229 43.9594V31.8663C124.112 30.9492 123.296 30.2042 122.363 30.2615ZM128.659 31.6943C128.659 31.637 128.659 31.637 128.659 31.5797C128.659 31.1212 128.309 31.0066 127.901 31.0066H127.377C127.202 31.0066 127.143 31.1212 127.143 31.1785V32.726C127.143 32.8979 127.202 32.9552 127.377 32.9552C127.552 32.9552 127.61 32.8406 127.61 32.726V32.1528H127.726L128.018 32.726C128.076 32.8406 128.135 32.9552 128.309 32.9552C128.484 32.9552 128.543 32.8979 128.543 32.7833C128.543 32.726 128.543 32.726 128.543 32.6686L128.193 32.1528C128.426 32.2101 128.659 31.9236 128.659 31.6943ZM127.96 31.8089H127.61V31.3504H127.96C128.135 31.3504 128.251 31.4077 128.251 31.5797C128.251 31.7516 128.135 31.8089 127.96 31.8089ZM127.901 30.1469C126.852 30.1469 126.036 31.0066 126.036 31.9809C126.036 32.9552 126.91 33.8149 127.901 33.8149C128.892 33.8149 129.767 32.9552 129.767 31.9809C129.709 31.0066 128.892 30.1469 127.901 30.1469ZM127.901 33.3564C127.085 33.3564 126.502 32.7833 126.502 31.9809C126.502 31.1785 127.085 30.6054 127.901 30.6054C128.717 30.6054 129.3 31.1785 129.3 31.9809C129.3 32.726 128.659 33.3564 127.901 33.3564Z" fill="#4D857F"/>
<path d="M77.3587 22.2376C73.6278 19.5438 68.0314 17.9391 62.2601 17.9391C56.4888 17.9391 50.8341 19.5438 47.1614 22.2376C46.8117 22.4668 46.6368 22.868 46.6368 23.3265C46.6368 24.1289 47.2197 24.702 48.0359 24.702C48.3273 24.702 48.6188 24.5874 48.9103 24.4155C51.417 22.5814 56.2556 20.6328 62.3767 20.6328C68.4978 20.6328 73.278 22.5814 75.7847 24.4155L75.843 24.4728C76.426 24.874 77.3587 24.7594 77.7668 24.1289C78.1166 23.4985 78 22.6388 77.3587 22.2376ZM62.2601 21.2059C56.8969 21.2059 51.8251 22.7534 48.6771 25.3325C48.6771 25.3325 48.6771 25.3325 48.6188 25.3325C48.2691 25.6764 48.2108 26.2495 48.5022 26.6507C48.6771 26.88 48.9103 26.9946 49.2601 26.9946C49.4933 26.9946 49.6682 26.9373 49.843 26.7653C52.6412 24.4728 57.3049 23.04 62.2018 23.04C67.0986 23.04 71.704 24.4155 74.5605 26.7653C74.9686 27.1092 75.6099 27.0519 75.9013 26.6507C76.2511 26.2495 76.1928 25.6191 75.7847 25.3325C72.6368 22.8107 67.565 21.2059 62.2601 21.2059ZM44.8879 11.2907C45.296 9.62861 44.3049 7.96652 42.556 7.4507C42.3229 7.39338 42.0314 7.33607 41.7399 7.33607C39.991 7.33607 38.5919 8.71159 38.5919 10.431C38.5919 12.1504 39.991 13.5259 41.7399 13.5259C43.3139 13.6405 44.5381 12.6662 44.8879 11.2907ZM62.2601 16.105C64.009 16.105 65.4081 14.7295 65.4081 13.0101C65.4081 11.2907 64.009 9.91518 62.2601 9.91518C60.5112 9.91518 59.1121 11.2907 59.1121 13.0101C59.1121 14.7295 60.4529 16.105 62.2601 16.105ZM62.2601 8.19577C64.009 8.19577 65.4081 6.82025 65.4081 5.10085C65.4081 3.38144 64.009 1.94861 62.2601 1.94861C60.5112 1.94861 59.1121 3.32413 59.1121 5.04353C59.0538 6.82025 60.4529 8.19577 62.2601 8.19577ZM52.9327 11.0041C51.2421 11.4626 50.2511 13.2394 50.7175 14.9014C51.0673 16.2197 52.3498 17.1367 53.7489 17.194H53.8072C54.0404 17.194 54.3318 17.1367 54.6233 17.0794C56.3139 16.6208 57.3049 14.9014 56.8969 13.2394C56.5471 11.8638 55.2646 10.8895 53.8072 10.8895C53.4574 10.8895 53.2242 10.9468 52.9327 11.0041ZM48.9686 18.0537C49.3767 16.3916 48.3856 14.6149 46.6368 14.2137C46.4036 14.1564 46.1121 14.0991 45.8206 14.0991C45.296 14.0991 44.713 14.271 44.1883 14.5003C43.4305 14.9014 42.9058 15.6465 42.7309 16.3916C42.4978 17.2513 42.6143 18.0537 43.0807 18.7988C43.6054 19.7731 44.6547 20.2889 45.8206 20.3462C46.3453 20.3462 46.9865 20.2316 47.4529 19.945C48.2108 19.5438 48.7937 18.8561 48.9686 18.0537ZM69.8969 17.022C70.1883 17.0794 70.4215 17.1367 70.7713 17.1367C72.5202 17.1367 73.9193 15.7038 73.9193 14.0417C73.9193 12.6089 72.9282 11.4053 71.5874 11.0614C71.296 11.0041 71.0628 10.9468 70.713 10.9468C68.9641 10.9468 67.565 12.3797 67.565 14.0991C67.5067 15.4173 68.4978 16.6782 69.8969 17.022ZM71.9955 9.45667C72.2287 9.51398 72.5202 9.5713 72.8699 9.5713C74.6188 9.5713 76.0179 8.13846 76.0179 6.47637C76.0179 5.04353 75.0269 3.83995 73.6861 3.49607C73.3946 3.43876 73.1614 3.38144 72.8117 3.38144C71.0628 3.38144 69.6637 4.81428 69.6637 6.53368C69.6637 7.79458 70.6547 9.05547 71.9955 9.45667ZM80.2735 14.5576C79.8072 14.271 79.2242 14.1564 78.6995 14.1564C76.9507 14.1564 75.5516 15.5319 75.5516 17.2513C75.5516 17.4805 75.6099 17.7671 75.6682 18.0537C75.843 18.8561 76.426 19.5438 77.1256 19.945C78.6413 20.862 80.6233 20.2889 81.4978 18.7988C81.9058 18.0537 82.0224 17.2513 81.8475 16.3916C81.4977 15.7038 80.9731 15.0161 80.2735 14.5576ZM85.8116 9.74324C85.6368 8.94085 85.0538 8.25309 84.3543 7.85189C82.8386 6.93488 80.8565 7.50801 79.9821 8.99816C79.574 9.74324 79.4574 10.5456 79.6323 11.4053C79.8072 12.2077 80.3901 12.8955 81.0897 13.2967C82.6054 14.2137 84.5874 13.6979 85.4619 12.2077C85.9282 11.4053 86.0448 10.431 85.8116 9.74324ZM51.7085 9.5713C52 9.5713 52.2915 9.51398 52.583 9.45667C54.2735 8.99816 55.2646 7.22144 54.8565 5.61667C54.5067 4.24115 53.2242 3.32413 51.8251 3.32413C51.5336 3.32413 51.3004 3.38144 50.9507 3.43876C49.2601 3.89727 48.2691 5.67398 48.6771 7.27876C49.0269 8.59697 50.2511 9.5713 51.7085 9.5713Z" fill="#4D857F"/>
</svg>
