<svg width="85" height="85" viewBox="0 0 85 85" fill="none" xmlns="http://www.w3.org/2000/svg">
<circle cx="42.5" cy="42.5" r="42.5" fill="#D5F0ED"/>
<path d="M56.223 41.6396L43.3459 28.7625C42.8063 28.2229 42.0626 27.9167 41.2897 27.9167H30.8334C29.2292 27.9167 27.9167 29.2292 27.9167 30.8333V41.2896C27.9167 42.0625 28.223 42.8063 28.7772 43.3458L41.6542 56.2229C42.7917 57.3604 44.6438 57.3604 45.7813 56.2229L56.2376 45.7667C57.3751 44.6292 57.3751 42.7917 56.223 41.6396ZM34.4792 36.6667C33.2688 36.6667 32.2917 35.6896 32.2917 34.4792C32.2917 33.2688 33.2688 32.2917 34.4792 32.2917C35.6897 32.2917 36.6667 33.2688 36.6667 34.4792C36.6667 35.6896 35.6897 36.6667 34.4792 36.6667Z" fill="#4D857F"/>
</svg>
