<svg width="130" height="48" viewBox="0 0 130 48" fill="none" xmlns="http://www.w3.org/2000/svg">
<path d="M106.78 26.5455C111.001 26.5455 114.423 23.1251 114.423 18.9058C114.423 14.6866 111.001 11.2662 106.78 11.2662C102.559 11.2662 99.1375 14.6866 99.1375 18.9058C99.1375 23.1251 102.559 26.5455 106.78 26.5455Z" fill="#4D857F"/>
<path d="M103.389 10.4073C105.499 10.4073 107.21 8.69712 107.21 6.5875C107.21 4.47788 105.499 2.7677 103.389 2.7677C101.278 2.7677 99.5674 4.47788 99.5674 6.5875C99.5674 8.69712 101.278 10.4073 103.389 10.4073Z" fill="#4D857F"/>
<path d="M113.313 11.0683C115.424 11.0683 117.135 9.35813 117.135 7.24851C117.135 5.1389 115.424 3.42871 113.313 3.42871C111.203 3.42871 109.492 5.1389 109.492 7.24851C109.492 9.35813 111.203 11.0683 113.313 11.0683Z" fill="#4D857F"/>
<path d="M119.599 19.0055C121.71 19.0055 123.421 17.2953 123.421 15.1856C123.421 13.076 121.71 11.3658 119.599 11.3658C117.489 11.3658 115.778 13.076 115.778 15.1856C115.778 17.2953 117.489 19.0055 119.599 19.0055Z" fill="#4D857F"/>
<path d="M118.854 29.3394C120.965 29.3394 122.676 27.6293 122.676 25.5196C122.676 23.41 120.965 21.6998 118.854 21.6998C116.744 21.6998 115.033 23.41 115.033 25.5196C115.033 27.6293 116.744 29.3394 118.854 29.3394Z" fill="#4D857F"/>
<path d="M126.677 24.1223C125.617 24.1223 124.72 24.9378 124.72 26.0429C124.72 27.1582 125.617 27.9731 126.677 27.9731C127.727 27.9731 128.624 27.1582 128.624 26.0429C128.624 24.9378 127.727 24.1223 126.677 24.1223ZM126.677 27.653C125.795 27.653 125.107 26.9699 125.107 26.0435C125.107 25.1315 125.795 24.4436 126.677 24.4436C127.549 24.4436 128.236 25.1309 128.236 26.0435C128.236 26.9699 127.549 27.653 126.677 27.653Z" fill="#4D857F"/>
<path d="M126.989 26.1807C127.315 26.1396 127.565 25.9667 127.565 25.5697C127.565 25.1316 127.305 24.9379 126.78 24.9379H125.934V27.1589H126.27V26.1962H126.658L127.243 27.1589H127.62L126.989 26.1807ZM126.27 25.9107V25.2228H126.729C126.964 25.2228 127.213 25.2741 127.213 25.5489C127.213 25.8904 126.959 25.9107 126.673 25.9107H126.27Z" fill="#4D857F"/>
<path d="M5.91916 17.5748C3.44081 17.5748 1.43237 19.5831 1.43237 22.0605V41.0492C1.43237 43.5266 3.44141 45.5343 5.91916 45.5343C8.39691 45.5343 10.4065 43.526 10.4065 41.0492V22.0605C10.4065 19.5837 8.39751 17.5748 5.91916 17.5748Z" fill="#4D857F"/>
<path d="M38.4604 39.0821L29.2017 20.0963C28.5058 18.705 27.4825 17.5587 25.1491 17.5587C22.8156 17.5587 21.7917 18.705 21.0964 20.0963L11.8372 39.0821C11.5456 39.6758 11.3816 40.3434 11.3816 41.0492C11.3816 43.5188 13.3847 45.5205 15.8553 45.5205C17.6389 45.5205 19.1792 44.4774 19.8972 42.9668L20.4953 41.7413L20.4816 41.7854H29.8571L30.4004 42.9668C31.1189 44.4768 32.6587 45.5205 34.4423 45.5205C36.9129 45.5205 38.9154 43.5188 38.9154 41.0492C38.9154 40.3434 38.752 39.6758 38.4604 39.0821ZM23.5503 35.4834L25.1485 32.2096L26.786 35.4834H23.5503Z" fill="#4D857F"/>
<path d="M70.7046 21.7744C70.5967 20.2275 69.6891 18.779 68.1947 18.0505C65.9674 16.9644 63.2809 17.889 62.1944 20.116L56.9771 30.7462L51.7997 20.116C50.7132 17.8896 48.0268 16.9644 45.7995 18.0505C44.3051 18.779 43.3969 20.2275 43.2895 21.7744L39.9411 40.2153C39.4897 42.6509 41.0986 44.9918 43.5358 45.4431C45.9724 45.8943 48.3136 44.286 48.7656 41.8504L49.7746 36.504L52.962 42.9985C53.739 44.5912 55.3354 45.5182 56.9968 45.5188C58.6581 45.5182 60.2545 44.5918 61.0315 42.9985L64.2189 36.504L65.188 41.8909C65.6394 44.3266 67.9812 45.9354 70.4178 45.4842C72.8544 45.033 74.4639 42.6921 74.0125 40.2564L70.7046 21.7744Z" fill="#4D857F"/>
<path d="M92.0364 29.0956C90.8896 28.3594 88.1877 27.2131 86.2228 26.5586C84.2579 25.9041 84.0939 25.0856 84.4212 24.4305C84.7486 23.7754 86.3456 23.5715 88.3946 25.246C89.0613 25.764 89.8979 26.0722 90.8073 26.0722C92.981 26.0722 94.6197 24.393 94.6197 22.2208C94.6197 21.2724 94.284 20.4027 93.7246 19.7231C92.7729 18.6191 89.9886 16.2461 85.4851 16.3277C80.9816 16.41 77.87 18.8653 76.6421 20.7478C75.4143 22.6303 73.9402 29.4234 79.0167 32.4522C80.4908 33.3523 81.8827 33.9258 84.2573 34.4986C86.6318 35.0715 86.6855 36.6088 86.3862 37.1179C85.9765 37.8135 84.1756 37.8547 83.2751 36.9546C83.0294 36.7501 82.0198 36.0151 81.7056 35.7278C80.9965 35.2485 80.142 34.9695 79.2218 34.9695C76.7685 34.9695 74.7798 36.9575 74.7798 39.4099C74.7798 40.7094 75.338 41.8783 76.2277 42.6902C77.7072 44.0756 81.4736 46.0397 85.3217 45.9574C89.1704 45.8758 93.1825 43.8294 94.7384 40.2283C96.2942 36.6255 95.5571 31.1414 92.0364 29.0956Z" fill="#4D857F"/>
</svg>
